<?xml version="1.0" encoding="utf-8"?><!--Generator: Adobe Illustrator 21.1.0, SVG Export Plug-In . SVG Version: 6.00 Build 0)--><svg version="1.1" id="ic_x5F_motorcycle_x5F_24px" xmlns="http://www.w3.org/2000/svg" xmlns:xlink="http://www.w3.org/1999/xlink" x="0px" y="0px" width="24px" height="24px" viewBox="0 0 24 24" enable-background="new 0 0 24 24" xml:space="preserve"><g><path d="M17.5,10c-0.03,0-0.05,0.01-0.08,0.01L13.41,6H9v2h3.59l2,2H6.49l0,0C4.01,10,2,12.02,2,14.5C2,16.99,4.01,19,6.5,19
		c2.22,0,4.06-1.62,4.42-3.73v0L13.04,14C13.02,14.17,13,14.33,13,14.5c0,2.49,2.01,4.5,4.5,4.5s4.5-2.01,4.5-4.5S19.99,10,17.5,10z
		 M8.84,15.26C8.52,16.27,7.58,17,6.47,17c-1.38,0-2.5-1.12-2.5-2.5c0-1.38,1.12-2.5,2.5-2.5c1.12,0,2.05,0.74,2.37,1.75H6v1.5
		L8.84,15.26z M17.47,17c-1.38,0-2.5-1.12-2.5-2.5c0-1.38,1.12-2.5,2.5-2.5s2.5,1.12,2.5,2.5C19.97,15.88,18.85,17,17.47,17z" fill="currentColor"/><rect fill="none" width="24" height="24"/></g></svg>