<?xml version="1.0" encoding="utf-8"?><!--Generator: Adobe Illustrator 19.1.0, SVG Export Plug-In . SVG Version: 6.00 Build 0)--><svg version="1.1" xmlns="http://www.w3.org/2000/svg" xmlns:xlink="http://www.w3.org/1999/xlink" x="0px" y="0px" width="24px" height="24px" viewBox="0 0 24 24" enable-background="new 0 0 24 24" xml:space="preserve"><g id="Bounding_Boxes"><g id="ui_x5F_spec_x5F_header_copy_3" display="none"/></g><g id="Outline"><g id="ui_x5F_spec_x5F_header" display="none"/><g><path d="M11,12c2.21,0,4-1.79,4-4c0-2.21-1.79-4-4-4S7,5.79,7,8C7,10.21,8.79,12,11,12z M11,6c1.1,0,2,0.9,2,2c0,1.1-0.9,2-2,2
			S9,9.1,9,8C9,6.9,9.9,6,11,6z" fill="currentColor"/><path d="M5,18c0.2-0.63,2.57-1.68,4.96-1.94l2.04-2C11.61,14.02,11.32,14,11,14c-2.67,0-8,1.34-8,4v2h9l-2-2H5z" fill="currentColor"/><polygon points="20.6,12.5 15.47,17.67 13.4,15.59 12,17 15.47,20.5 22,13.91 		"/></g></g></svg>