<?xml version="1.0" encoding="utf-8"?><!--Generator: Adobe Illustrator 19.1.0, SVG Export Plug-In . SVG Version: 6.00 Build 0)--><svg version="1.1" xmlns="http://www.w3.org/2000/svg" xmlns:xlink="http://www.w3.org/1999/xlink" x="0px" y="0px" width="24px" height="24px" viewBox="0 0 24 24" enable-background="new 0 0 24 24" xml:space="preserve"><g id="Bounding_Boxes"><g id="ui_x5F_spec_x5F_header_copy_3" display="none"/></g><g id="Rounded" display="none"><g id="ui_x5F_spec_x5F_header_copy_5"/><path display="inline" d="M19,4h-4L7.11,16.63L4.5,12L9,4H5l-4.5,8L5,20h4l7.89-12.63L19.5,12L15,20h4l4.5-8L19,4z" fill="currentColor"/></g><g id="Sharp" display="none"><g id="ui_x5F_spec_x5F_header_copy_4"/><path display="inline" d="M19,4h-4L7.11,16.63L4.5,12L9,4H5l-4.5,8L5,20h4l7.89-12.63L19.5,12L15,20h4l4.5-8L19,4z" fill="currentColor"/></g><g id="Outline"><g id="ui_x5F_spec_x5F_header" display="none"/><path d="M19,4h-4L7.11,16.63L4.5,12L9,4H5l-4.5,8L5,20h4l7.89-12.63L19.5,12L15,20h4l4.5-8L19,4z" fill="currentColor"/></g><g id="Duotone" display="none"><g id="ui_x5F_spec_x5F_header_copy_2"/><path display="inline" d="M19,4h-4L7.11,16.63L4.5,12L9,4H5l-4.5,8L5,20h4l7.89-12.63L19.5,12L15,20h4l4.5-8L19,4z" fill="currentColor"/></g><g id="Material" display="none"><g id="ui_x5F_spec_x5F_header_copy"/><path display="inline" d="M19,4h-4L7.11,16.63L4.5,12L9,4H5l-4.5,8L5,20h4l7.89-12.63L19.5,12L15,20h4l4.5-8L19,4z" fill="currentColor"/></g></svg>