<?xml version="1.0" encoding="utf-8"?><!--Generator: Adobe Illustrator 19.1.0, SVG Export Plug-In . SVG Version: 6.00 Build 0)--><svg version="1.1" xmlns="http://www.w3.org/2000/svg" xmlns:xlink="http://www.w3.org/1999/xlink" x="0px" y="0px" width="24px" height="24px" viewBox="0 0 24 24" enable-background="new 0 0 24 24" xml:space="preserve"><g id="Bounding_Boxes"/><g id="Outline"><g id="ui_x5F_spec_x5F_header"/><path d="M19.77,7.23l0.01-0.01L16.06,3.5L15,4.56l2.11,2.11C16.17,7.03,15.5,7.93,15.5,9c0,1.38,1.12,2.5,2.5,2.5
		c0.36,0,0.69-0.08,1-0.21v7.21c0,0.55-0.45,1-1,1s-1-0.45-1-1V14c0-1.1-0.9-2-2-2h-1V5c0-1.1-0.9-2-2-2H6C4.9,3,4,3.9,4,5v16h10
		v-7.5h1.5v5c0,1.38,1.12,2.5,2.5,2.5s2.5-1.12,2.5-2.5V9C20.5,8.31,20.22,7.68,19.77,7.23z M12,13.5V19H6v-7h6V13.5z M12,10H6V5h6
		V10z M18,10c-0.55,0-1-0.45-1-1s0.45-1,1-1s1,0.45,1,1S18.55,10,18,10z" fill="currentColor"/></g></svg>