<?xml version="1.0" encoding="utf-8"?><!--Generator: Adobe Illustrator 19.1.0, SVG Export Plug-In . SVG Version: 6.00 Build 0)--><svg version="1.1" xmlns="http://www.w3.org/2000/svg" xmlns:xlink="http://www.w3.org/1999/xlink" x="0px" y="0px" width="24px" height="24px" viewBox="0 0 24 24" enable-background="new 0 0 24 24" xml:space="preserve"><g id="Bounding_Boxes"/><g id="Outline"><g id="ui_x5F_spec_x5F_header"/><g><path d="M12,1C7.58,1,4,1.5,4,5v10.5C4,17.43,5.57,19,7.5,19L6,20.5V21h12v-0.5L16.5,19c1.93,0,3.5-1.57,3.5-3.5V5
			C20,1.5,16.42,1,12,1z M12,3c6,0,6,1.2,6,2H6C6,4.2,6,3,12,3z M18,7v3H6V7H18z M16.5,17h-9C6.67,17,6,16.33,6,15.5V12h12v3.5
			C18,16.33,17.33,17,16.5,17z" fill="currentColor"/><path d="M12,12.5c-1.1,0-2,0.9-2,2c0,1.1,0.9,2,2,2s2-0.9,2-2C14,13.4,13.1,12.5,12,12.5z" fill="currentColor"/></g></g></svg>