<?xml version="1.0" encoding="utf-8"?><!--Generator: Adobe Illustrator 19.1.0, SVG Export Plug-In . SVG Version: 6.00 Build 0)--><svg version="1.1" xmlns="http://www.w3.org/2000/svg" xmlns:xlink="http://www.w3.org/1999/xlink" x="0px" y="0px" width="24px" height="24px" viewBox="0 0 24 24" enable-background="new 0 0 24 24" xml:space="preserve"><g id="Bounding_Boxes"/><g id="Outline"><g id="ui_x5F_spec_x5F_header"/><g><path d="M19,6h-2c0-2.76-2.24-5-5-5S7,3.24,7,6H5C3.9,6,3,6.9,3,8v12c0,1.1,0.9,2,2,2h14c1.1,0,2-0.9,2-2V8C21,6.9,20.1,6,19,6z
			 M12,3c1.66,0,3,1.34,3,3H9C9,4.34,10.34,3,12,3z M19,20L5,20V8h14V20z" fill="currentColor"/><path d="M12,12c-1.66,0-3-1.34-3-3H7c0,2.76,2.24,5,5,5s5-2.24,5-5h-2C15,10.66,13.66,12,12,12z" fill="currentColor"/></g></g></svg>