<?xml version="1.0" encoding="utf-8"?><!--Generator: Adobe Illustrator 19.1.0, SVG Export Plug-In . SVG Version: 6.00 Build 0)--><svg version="1.1" xmlns="http://www.w3.org/2000/svg" xmlns:xlink="http://www.w3.org/1999/xlink" x="0px" y="0px" width="24px" height="24px" viewBox="0 0 24 24" enable-background="new 0 0 24 24" xml:space="preserve"><g id="Bounding_Boxes"><g id="ui_x5F_spec_x5F_header_copy_2"/></g><g id="Outline"><g id="ui_x5F_spec_x5F_header"/><g><path d="M18,2H6C4.9,2,4,2.9,4,4v16c0,1.1,0.9,2,2,2h12c1.1,0,2-0.9,2-2V4C20,2.9,19.1,2,18,2z M11,4v5l-1-0.75L9,9V4H11z M18,20
			H6V4h1v9l3-2.25L13,13V4h5V20z" fill="currentColor"/><polygon points="11.28,17.96 9.5,15.81 7,19 17,19 13.78,14.74 		"/></g></g></svg>