<?xml version="1.0" encoding="utf-8"?><!--Generator: Adobe Illustrator 19.1.0, SVG Export Plug-In . SVG Version: 6.00 Build 0)--><svg version="1.1" xmlns="http://www.w3.org/2000/svg" xmlns:xlink="http://www.w3.org/1999/xlink" x="0px" y="0px" width="24px" height="24px" viewBox="0 0 24 24" enable-background="new 0 0 24 24" xml:space="preserve"><g id="Bounding_Boxes"/><g id="Outline"><g id="ui_x5F_spec_x5F_header"/><path d="M16,5v8c0,1.1-0.9,2-2,2H8c-1.1,0-2-0.9-2-2V5H16 M20,3H4v10c0,2.21,1.79,4,4,4h6c2.21,0,4-1.79,4-4v-3h2
		c1.11,0,2-0.89,2-2V5C22,3.89,21.11,3,20,3L20,3z M18,8V5h2v3H18L18,8z M20,19H2v2h18V19L20,19z" fill="currentColor"/></g></svg>