<?xml version="1.0" encoding="utf-8"?><!--Generator: Adobe Illustrator 19.1.0, SVG Export Plug-In . SVG Version: 6.00 Build 0)--><svg version="1.1" xmlns="http://www.w3.org/2000/svg" xmlns:xlink="http://www.w3.org/1999/xlink" x="0px" y="0px" width="24px" height="24px" viewBox="0 0 24 24" enable-background="new 0 0 24 24" xml:space="preserve"><g id="Bounding_Boxes"><g id="ui_x5F_spec_x5F_header_copy_3" display="none"/></g><g id="Outline"><g id="ui_x5F_spec_x5F_header" display="none"/><g><path d="M18,13h-0.68l-2,2h1.91L19,17H5l1.78-2h2.05l-2-2H6l-3,3v4c0,1.1,0.89,2,1.99,2H19c1.1,0,2-0.89,2-2v-4L18,13z M19,20H5
			v-1h14V20z" fill="currentColor"/><path d="M11.34,15.02c0.39,0.39,1.02,0.39,1.41,0l6.36-6.36c0.39-0.39,0.39-1.02,0-1.41L14.16,2.3c-0.38-0.4-1.01-0.4-1.4-0.01
			L6.39,8.66C6,9.05,6,9.68,6.39,10.07L11.34,15.02z M13.46,4.41L17,7.95l-4.95,4.95L8.51,9.36L13.46,4.41z" fill="currentColor"/></g></g></svg>