<?xml version="1.0" encoding="utf-8"?><!--Generator: Adobe Illustrator 19.1.0, SVG Export Plug-In . SVG Version: 6.00 Build 0)--><svg version="1.1" xmlns="http://www.w3.org/2000/svg" xmlns:xlink="http://www.w3.org/1999/xlink" x="0px" y="0px" width="24px" height="24px" viewBox="0 0 24 24" enable-background="new 0 0 24 24" xml:space="preserve"><g id="Bounding_Boxes"><g id="ui_x5F_spec_x5F_header_copy_3" display="none"/></g><g id="Outline"><g id="ui_x5F_spec_x5F_header" display="none"/><g><path d="M20.54,5.23l-1.39-1.68C18.88,3.21,18.47,3,18,3H6C5.53,3,5.12,3.21,4.84,3.55L3.46,5.23C3.17,5.57,3,6.02,3,6.5V19
			c0,1.1,0.9,2,2,2h14c1.1,0,2-0.9,2-2V6.5C21,6.02,20.83,5.57,20.54,5.23z M6.24,5h11.52l0.83,1H5.42L6.24,5z M5,19V8h14v11H5z" fill="currentColor"/><polygon points="8,14 10.55,14 10.55,17 13.45,17 13.45,14 16,14 12,10 		"/></g></g></svg>