<?xml version="1.0" encoding="utf-8"?><!--Generator: Adobe Illustrator 19.1.0, SVG Export Plug-In . SVG Version: 6.00 Build 0)--><svg version="1.1" xmlns="http://www.w3.org/2000/svg" xmlns:xlink="http://www.w3.org/1999/xlink" x="0px" y="0px" width="24px" height="24px" viewBox="0 0 24 24" enable-background="new 0 0 24 24" xml:space="preserve"><g id="Bounding_Boxes"><g id="ui_x5F_spec_x5F_header_copy_3"/></g><g id="Outline_1_"><g id="ui_x5F_spec_x5F_header_copy_4"/><path d="M7,16c0.55,0,1,0.45,1,1c0,1.1-0.9,2-2,2c-0.17,0-0.33-0.02-0.5-0.05C5.81,18.4,6,17.74,6,17C6,16.45,6.45,16,7,16
		 M18.67,3c-0.26,0-0.51,0.1-0.71,0.29L9,12.25L11.75,15l8.96-8.96c0.39-0.39,0.39-1.02,0-1.41l-1.34-1.34
		C19.17,3.09,18.92,3,18.67,3L18.67,3z M7,14c-1.66,0-3,1.34-3,3c0,1.31-1.16,2-2,2c0.92,1.22,2.49,2,4,2c2.21,0,4-1.79,4-4
		C10,15.34,8.66,14,7,14L7,14z" fill="currentColor"/></g></svg>