<?xml version="1.0" encoding="utf-8"?><!--Generator: Adobe Illustrator 19.1.0, SVG Export Plug-In . SVG Version: 6.00 Build 0)--><svg version="1.1" xmlns="http://www.w3.org/2000/svg" xmlns:xlink="http://www.w3.org/1999/xlink" x="0px" y="0px" width="24px" height="24px" viewBox="0 0 24 24" enable-background="new 0 0 24 24" xml:space="preserve"><g id="Bounding_Boxes"><g id="ui_x5F_spec_x5F_header_copy_3" display="none"/></g><g id="Outline"><g id="ui_x5F_spec_x5F_header" display="none"/><g><rect x="13" y="7.5" width="5" height="2"/><rect x="13" y="14.5" width="5" height="2"/><path d="M19,3H5C3.9,3,3,3.9,3,5v14c0,1.1,0.9,2,2,2h14c1.1,0,2-0.9,2-2V5C21,3.9,20.1,3,19,3z M19,19H5V5h14V19z" fill="currentColor"/><path d="M11,6H6v5h5V6z M10,10H7V7h3V10z" fill="currentColor"/><path d="M11,13H6v5h5V13z M10,17H7v-3h3V17z" fill="currentColor"/></g></g></svg>