<?xml version="1.0" encoding="utf-8"?><!--Generator: Adobe Illustrator 19.1.0, SVG Export Plug-In . SVG Version: 6.00 Build 0)--><svg version="1.1" xmlns="http://www.w3.org/2000/svg" xmlns:xlink="http://www.w3.org/1999/xlink" x="0px" y="0px" width="24px" height="24px" viewBox="0 0 24 24" enable-background="new 0 0 24 24" xml:space="preserve"><g id="Bounding_Boxes"/><g id="Outline"><g id="ui_x5F_spec_x5F_header"/><g><path d="M19,3H5C3.9,3,3,3.9,3,5v14c0,1.1,0.89,2,2,2h14c1.1,0,2-0.9,2-2V5C21,3.9,20.11,3,19,3z M19,19H5V5h14V19z" fill="currentColor"/><polygon points="9.5,15 11,15 11,13.51 12,13.51 12,12 11,12 11,9 9.5,9 9.5,12 8,12 8,9 6.5,9 6.5,13.5 9.5,13.5 		"/><polygon points="18.2,15 16.2,12 18.2,9 16.5,9 14.5,12 16.5,15 		"/><polygon points="14.5,12 14.5,9 13,9 13,15 14.5,15 		"/></g></g></svg>