<?xml version="1.0" encoding="utf-8"?><!--Generator: Adobe Illustrator 19.1.0, SVG Export Plug-In . SVG Version: 6.00 Build 0)--><svg version="1.1" xmlns="http://www.w3.org/2000/svg" xmlns:xlink="http://www.w3.org/1999/xlink" x="0px" y="0px" width="24px" height="24px" viewBox="0 0 24 24" enable-background="new 0 0 24 24" xml:space="preserve"><g id="Bounding_Boxes"/><g id="Outline"><g id="ui_x5F_spec_x5F_header"/><g><path d="M12,2l-5.5,9h11L12,2z M12,5.84L13.93,9h-3.87L12,5.84z" fill="currentColor"/><path d="M17.5,13c-2.49,0-4.5,2.01-4.5,4.5s2.01,4.5,4.5,4.5s4.5-2.01,4.5-4.5S19.99,13,17.5,13z M17.5,20
			c-1.38,0-2.5-1.12-2.5-2.5s1.12-2.5,2.5-2.5s2.5,1.12,2.5,2.5S18.88,20,17.5,20z" fill="currentColor"/><path d="M3,21.5h8v-8H3V21.5z M5,15.5h4v4H5V15.5z" fill="currentColor"/></g></g></svg>