<?xml version="1.0" encoding="utf-8"?><!--Generator: Adobe Illustrator 19.1.0, SVG Export Plug-In . SVG Version: 6.00 Build 0)--><svg version="1.1" xmlns="http://www.w3.org/2000/svg" xmlns:xlink="http://www.w3.org/1999/xlink" x="0px" y="0px" width="24px" height="24px" viewBox="0 0 24 24" enable-background="new 0 0 24 24" xml:space="preserve"><g id="Bounding_Boxes"><g id="ui_x5F_spec_x5F_header_copy_3" display="none"/></g><g id="Rounded" display="none"><g id="ui_x5F_spec_x5F_header_copy_5"/><path display="inline" d="M11.5,9C10.12,9,9,10.12,9,11.5s1.12,2.5,2.5,2.5s2.5-1.12,2.5-2.5S12.88,9,11.5,9z M20,4H4
		C2.9,4,2,4.9,2,6v12c0,1.1,0.9,2,2,2h16c1.1,0,2-0.9,2-2V6C22,4.9,21.1,4,20,4z M16.08,17.5l-2.2-2.2
		c-0.9,0.58-2.03,0.84-3.22,0.62c-1.88-0.35-3.38-1.93-3.62-3.83c-0.38-3.01,2.18-5.52,5.21-5.04c1.88,0.3,3.39,1.84,3.7,3.71
		c0.19,1.16-0.08,2.23-0.64,3.12l2.2,2.19c0.39,0.39,0.39,1.03,0,1.42v0C17.11,17.89,16.47,17.89,16.08,17.5z" fill="currentColor"/></g><g id="Sharp" display="none"><g id="ui_x5F_spec_x5F_header_copy_4"/><path display="inline" d="M11.5,9C10.12,9,9,10.12,9,11.5s1.12,2.5,2.5,2.5s2.5-1.12,2.5-2.5S12.88,9,11.5,9z M22,4H2v16h20V4z
		 M16.79,18.21l-2.91-2.91c-0.69,0.44-1.51,0.7-2.39,0.7C9.01,16,7,13.99,7,11.5S9.01,7,11.5,7S16,9.01,16,11.5
		c0,0.88-0.26,1.69-0.7,2.39l2.91,2.9L16.79,18.21z" fill="currentColor"/></g><g id="Outline"><g id="ui_x5F_spec_x5F_header" display="none"/><g><path d="M11.49,16c0.88,0,1.7-0.26,2.39-0.7l2.44,2.44l1.42-1.42l-2.44-2.43c0.44-0.7,0.7-1.51,0.7-2.39C16,9.01,13.99,7,11.5,7
			S7,9.01,7,11.5S9.01,16,11.49,16z M11.5,9c1.38,0,2.5,1.12,2.5,2.5S12.88,14,11.5,14S9,12.88,9,11.5S10.12,9,11.5,9z" fill="currentColor"/><path d="M20,4H4C2.9,4,2,4.9,2,6v12c0,1.1,0.9,2,2,2h16c1.1,0,2-0.9,2-2V6C22,4.9,21.1,4,20,4z M20,18H4V6h16V18z" fill="currentColor"/></g></g><g id="Duotone" display="none"><g id="ui_x5F_spec_x5F_header_copy_2"/><g display="inline"><path opacity="0.3" d="M4,18h16V6H4V18z M11.5,7c2.49,0,4.5,2.01,4.5,4.5c0,0.88-0.26,1.69-0.7,2.39l2.44,2.43l-1.42,1.42
			l-2.44-2.44c-0.69,0.44-1.51,0.7-2.39,0.7C9.01,16,7,13.99,7,11.5S9.01,7,11.5,7z" fill="currentColor"/><g><path d="M11.49,16c0.88,0,1.7-0.26,2.39-0.7l2.44,2.44l1.42-1.42l-2.44-2.43c0.44-0.7,0.7-1.51,0.7-2.39C16,9.01,13.99,7,11.5,7
				S7,9.01,7,11.5S9.01,16,11.49,16z M11.5,9c1.38,0,2.5,1.12,2.5,2.5S12.88,14,11.5,14S9,12.88,9,11.5S10.12,9,11.5,9z" fill="currentColor"/></g><path d="M20,4H4C2.9,4,2,4.9,2,6v12c0,1.1,0.9,2,2,2h16c1.1,0,2-0.9,2-2V6C22,4.9,21.1,4,20,4z M20,18H4V6h16V18z" fill="currentColor"/></g></g><g id="Material" display="none"><g id="ui_x5F_spec_x5F_header_copy"/><path display="inline" d="M11.5,9C10.12,9,9,10.12,9,11.5s1.12,2.5,2.5,2.5s2.5-1.12,2.5-2.5S12.88,9,11.5,9z M20,4H4
		C2.9,4,2,4.9,2,6v12c0,1.1,0.9,2,2,2h16c1.1,0,2-0.9,2-2V6C22,4.9,21.1,4,20,4z M16.79,18.21l-2.91-2.91
		c-0.69,0.44-1.51,0.7-2.39,0.7C9.01,16,7,13.99,7,11.5S9.01,7,11.5,7S16,9.01,16,11.5c0,0.88-0.26,1.69-0.7,2.39l2.91,2.9
		L16.79,18.21z" fill="currentColor"/></g></svg>