<?xml version="1.0" encoding="utf-8"?><!--Generator: Adobe Illustrator 19.1.0, SVG Export Plug-In . SVG Version: 6.00 Build 0)--><svg version="1.1" xmlns="http://www.w3.org/2000/svg" xmlns:xlink="http://www.w3.org/1999/xlink" x="0px" y="0px" width="24px" height="24px" viewBox="0 0 24 24" enable-background="new 0 0 24 24" xml:space="preserve"><g id="Bounding_Boxes"><g id="ui_x5F_spec_x5F_header_copy_2"/></g><g id="Outline"><g id="ui_x5F_spec_x5F_header"/><g><circle cx="4.5" cy="9.5" r="1.5"/><path d="M22.17,9.17c0-3.87-3.13-7-7-7c-3.87,0-7,3.13-7,7c0,3.47,2.52,6.34,5.83,6.89V20H6v-3h1v-4c0-0.55-0.45-1-1-1H3
			c-0.55,0-1,0.45-1,1v4h1v5h16v-2h-3v-3.88C19.47,15.71,22.17,12.76,22.17,9.17z M15.17,14.17c-2.76,0-5-2.24-5-5s2.24-5,5-5
			c2.76,0,5,2.24,5,5S17.93,14.17,15.17,14.17z" fill="currentColor"/></g></g></svg>