<?xml version="1.0" encoding="utf-8"?><!--Generator: Adobe Illustrator 19.1.0, SVG Export Plug-In . SVG Version: 6.00 Build 0)--><svg version="1.1" xmlns="http://www.w3.org/2000/svg" xmlns:xlink="http://www.w3.org/1999/xlink" x="0px" y="0px" width="24px" height="24px" viewBox="0 0 24 24" enable-background="new 0 0 24 24" xml:space="preserve"><g id="Bounding_Boxes"/><g id="Outline"><g id="ui_x5F_spec_x5F_header" display="none"/><g><polygon points="18.98,17 5.02,17 2,17 2,19 5.44,19 18.56,19 22,19 22,17 		"/><path d="M21,16c-0.27-4.07-3.25-7.4-7.16-8.21C13.94,7.55,14,7.28,14,7c0-1.1-0.9-2-2-2c-1.1,0-2,0.9-2,2
			c0,0.28,0.06,0.55,0.16,0.79C6.25,8.6,3.27,11.93,3,16H21z M12,9.58c2.95,0,5.47,1.83,6.5,4.41h-13C6.53,11.41,9.05,9.58,12,9.58z
			" fill="currentColor"/></g></g></svg>