<?xml version="1.0" encoding="utf-8"?><!--Generator: Adobe Illustrator 19.1.0, SVG Export Plug-In . SVG Version: 6.00 Build 0)--><svg version="1.1" xmlns="http://www.w3.org/2000/svg" xmlns:xlink="http://www.w3.org/1999/xlink" x="0px" y="0px" width="24px" height="24px" viewBox="0 0 24 24" enable-background="new 0 0 24 24" xml:space="preserve"><g id="Bounding_Boxes"/><g id="Outline"><g id="ui_x5F_spec_x5F_header"/><g><path d="M23,12l-2.44-2.78l0.34-3.68l-3.61-0.82L15.4,1.54L12,3L8.6,1.54L6.71,4.72L3.1,5.53l0.34,3.68L1,12l2.44,2.78L3.1,18.47
			l3.61,0.82l1.89,3.18L12,21l3.4,1.46l1.89-3.18l3.61-0.82l-0.34-3.68L23,12z M18.49,14.11l0.26,2.79l-2.74,0.62l-1.43,2.41
			L12,18.82l-2.58,1.11l-1.43-2.41l-2.74-0.62l0.26-2.8L3.66,12l1.85-2.12L5.25,7.1l2.74-0.61l1.43-2.41L12,5.18l2.58-1.11
			l1.43,2.41l2.74,0.62l-0.26,2.79L20.34,12L18.49,14.11z" fill="currentColor"/><rect x="11" y="15" width="2" height="2"/><rect x="11" y="7" width="2" height="6"/></g></g></svg>