<?xml version="1.0" encoding="utf-8"?><!--Generator: Adobe Illustrator 19.1.0, SVG Export Plug-In . SVG Version: 6.00 Build 0)--><svg version="1.1" xmlns="http://www.w3.org/2000/svg" xmlns:xlink="http://www.w3.org/1999/xlink" x="0px" y="0px" width="24px" height="24px" viewBox="0 0 24 24" enable-background="new 0 0 24 24" xml:space="preserve"><g id="Bounding_Boxes"/><g id="Outline"><g id="ui_x5F_spec_x5F_header"/><g><path d="M12,12c-2.76,0-5,2.24-5,5s2.24,5,5,5s5-2.24,5-5S14.76,12,12,12z M12,20c-1.65,0-3-1.35-3-3s1.35-3,3-3s3,1.35,3,3
			S13.65,20,12,20z" fill="currentColor"/><path d="M12,3C8.1,3,4.56,4.59,2,7.15l5,5c1.28-1.28,3.05-2.08,5-2.08s3.72,0.79,5,2.07l5-5C19.44,4.59,15.9,3,12,3z M16.84,9.47
			c-1.44-0.91-3.1-1.4-4.84-1.4c-1.74,0-3.41,0.49-4.85,1.41L4.94,7.26C6.99,5.79,9.44,5,12,5c2.56,0,5,0.79,7.05,2.26L16.84,9.47z" fill="currentColor"/></g></g></svg>