<?xml version="1.0" encoding="utf-8"?><!--Generator: Adobe Illustrator 19.1.0, SVG Export Plug-In . SVG Version: 6.00 Build 0)--><svg version="1.1" xmlns="http://www.w3.org/2000/svg" xmlns:xlink="http://www.w3.org/1999/xlink" x="0px" y="0px" width="24px" height="24px" viewBox="0 0 24 24" enable-background="new 0 0 24 24" xml:space="preserve"><g id="Bounding_Boxes"><g id="ui_x5F_spec_x5F_header_copy_3" display="none"/></g><g id="Rounded" display="none"><g id="ui_x5F_spec_x5F_header_copy_5"/><path display="inline" d="M21,3.01H3c-1.1,0-2,0.9-2,2V8c0,0.55,0.45,1,1,1h0c0.55,0,1-0.45,1-1V5.99c0-0.55,0.45-1,1-1h16
		c0.55,0,1,0.45,1,1v12.03c0,0.55-0.45,1-1,1H4c-0.55,0-1-0.45-1-1V16c0-0.55-0.45-1-1-1h0c-0.55,0-1,0.45-1,1v3.01
		c0,1.09,0.89,1.98,1.98,1.98H21c1.1,0,2-0.9,2-2V5.01C23,3.91,22.1,3.01,21,3.01z M11.85,15.15l2.79-2.79c0.2-0.2,0.2-0.51,0-0.71
		l-2.79-2.79C11.54,8.54,11,8.76,11,9.21V11H2c-0.55,0-1,0.45-1,1v0c0,0.55,0.45,1,1,1h9v1.79C11,15.24,11.54,15.46,11.85,15.15z" fill="currentColor"/></g><g id="Sharp" display="none"><g id="ui_x5F_spec_x5F_header_copy_4"/><path display="inline" d="M21,3.01H3c-1.1,0-2,0.9-2,2V9h2V4.99h18v14.03H3V15H1v4.01c0,1.1,0.9,1.98,2,1.98h18
		c1.1,0,2-0.88,2-1.98v-14C23,3.9,22.1,3.01,21,3.01z M11,16l4-4l-4-4v3H1v2h10V16z" fill="currentColor"/><path display="inline" d="M23,3.01H1V9h2V4.99h18v14.03H3V15H1v5.99h22V3.01z M11,16l4-4l-4-4v3H1v2h10V16z" fill="currentColor"/></g><g id="Outline"><g id="ui_x5F_spec_x5F_header" display="none"/><path d="M21,3.01H3c-1.1,0-2,0.9-2,2V9h2V4.99h18v14.03H3V15H1v4.01c0,1.1,0.9,1.98,2,1.98h18c1.1,0,2-0.88,2-1.98v-14
		C23,3.9,22.1,3.01,21,3.01z M11,16l4-4l-4-4v3H1v2h10V16z" fill="currentColor"/><path d="M21,3.01H3c-1.1,0-2,0.9-2,2V9h2V4.99h18v14.03H3V15H1v4.01c0,1.1,0.9,1.98,2,1.98h18c1.1,0,2-0.88,2-1.98v-14
		C23,3.9,22.1,3.01,21,3.01z M11,16l4-4l-4-4v3H1v2h10V16z" fill="currentColor"/></g><g id="Duotone" display="none"><g id="ui_x5F_spec_x5F_header_copy_2"/><path display="inline" d="M21,3.01H3c-1.1,0-2,0.9-2,2V9h2V4.99h18v14.03H3V15H1v4.01c0,1.1,0.9,1.98,2,1.98h18
		c1.1,0,2-0.88,2-1.98v-14C23,3.9,22.1,3.01,21,3.01z M11,16l4-4l-4-4v3H1v2h10V16z" fill="currentColor"/></g><g id="Material" display="none"><g id="ui_x5F_spec_x5F_header_copy"/><path display="inline" d="M21,3.01H3c-1.1,0-2,0.9-2,2V9h2V4.99h18v14.03H3V15H1v4.01c0,1.1,0.9,1.98,2,1.98h18
		c1.1,0,2-0.88,2-1.98v-14C23,3.9,22.1,3.01,21,3.01z M11,16l4-4l-4-4v3H1v2h10V16z" fill="currentColor"/></g></svg>