<?xml version="1.0" encoding="utf-8"?><!--Generator: Adobe Illustrator 19.1.0, SVG Export Plug-In . SVG Version: 6.00 Build 0)--><svg version="1.1" xmlns="http://www.w3.org/2000/svg" xmlns:xlink="http://www.w3.org/1999/xlink" x="0px" y="0px" width="24px" height="24px" viewBox="0 0 24 24" enable-background="new 0 0 24 24" xml:space="preserve"><g id="Bounding_Boxes"><g id="ui_x5F_spec_x5F_header_copy_2"/></g><g id="Outline"><g id="ui_x5F_spec_x5F_header"/><path d="M12,6c1.1,0,2,0.9,2,2s-0.9,2-2,2s-2-0.9-2-2S10.9,6,12,6 M12,16c2.7,0,5.8,1.29,6,2H6C6.23,17.28,9.31,16,12,16 M12,4
		C9.79,4,8,5.79,8,8s1.79,4,4,4s4-1.79,4-4S14.21,4,12,4L12,4z M12,14c-2.67,0-8,1.34-8,4v2h16v-2C20,15.34,14.67,14,12,14L12,14z" fill="currentColor"/></g></svg>