<?xml version="1.0" encoding="utf-8"?><!--Generator: Adobe Illustrator 19.1.0, SVG Export Plug-In . SVG Version: 6.00 Build 0)--><svg version="1.1" xmlns="http://www.w3.org/2000/svg" xmlns:xlink="http://www.w3.org/1999/xlink" x="0px" y="0px" width="24px" height="24px" viewBox="0 0 24 24" enable-background="new 0 0 24 24" xml:space="preserve"><g id="Bounding_Boxes"><g id="ui_x5F_spec_x5F_header_copy_2"/></g><g id="Outline"><g id="ui_x5F_spec_x5F_header"/><path d="M20,5h-3.2L15,3H9L7.2,5H4C2.9,5,2,5.9,2,7v12c0,1.1,0.9,2,2,2h16c1.1,0,2-0.9,2-2V7C22,5.9,21.1,5,20,5z M20,19h-8v-1
		c-2.8,0-5-2.2-5-5s2.2-5,5-5V7h8V19z M17,13c0-2.8-2.2-5-5-5v1.8c1.8,0,3.2,1.4,3.2,3.2s-1.4,3.2-3.2,3.2V18C14.8,18,17,15.8,17,13
		z M8.8,13c0,1.8,1.4,3.2,3.2,3.2V9.8C10.2,9.8,8.8,11.2,8.8,13z" fill="currentColor"/></g></svg>