<?xml version="1.0" encoding="utf-8"?><!--Generator: Adobe Illustrator 19.1.0, SVG Export Plug-In . SVG Version: 6.00 Build 0)--><svg version="1.1" xmlns="http://www.w3.org/2000/svg" xmlns:xlink="http://www.w3.org/1999/xlink" x="0px" y="0px" width="24px" height="24px" viewBox="0 0 24 24" enable-background="new 0 0 24 24" xml:space="preserve"><g id="Bounding_Boxes"><g id="ui_x5F_spec_x5F_header_copy_3"/></g><g id="Outline_1_"><g id="ui_x5F_spec_x5F_header_copy_4"/><g><path d="M14,5c0-1.1-0.9-2-2-2h-1V2c0-0.55-0.45-1-1-1H6C5.45,1,5,1.45,5,2v1H4C2.9,3,2,3.9,2,5v15c0,1.1,0.9,2,2,2h8
			c1.1,0,2-0.9,2-2h8V5H14z M20,18h-8v2H4V5h3V3h2v2h3v2h8V18z" fill="currentColor"/><rect x="9" y="15" width="2" height="2"/><rect x="9" y="8" width="2" height="2"/><rect x="13" y="15" width="2" height="2"/><rect x="13" y="8" width="2" height="2"/><rect x="17" y="15" width="2" height="2"/><rect x="17" y="8" width="2" height="2"/></g></g></svg>