<?xml version="1.0" encoding="utf-8"?><!--Generator: Adobe Illustrator 19.1.0, SVG Export Plug-In . SVG Version: 6.00 Build 0)--><svg version="1.1" xmlns="http://www.w3.org/2000/svg" xmlns:xlink="http://www.w3.org/1999/xlink" x="0px" y="0px" width="24px" height="24px" viewBox="0 0 24 24" enable-background="new 0 0 24 24" xml:space="preserve"><g id="Bounding_Boxes"><g id="ui_x5F_spec_x5F_header_copy_3"/></g><g id="Outline"><g id="ui_x5F_spec_x5F_header"/><g><polygon points="21,18 2,18 2,20 21,20 21,18 		"/><path d="M19,10v4H4v-4H19 M20,8H3C2.45,8,2,8.45,2,9v6c0,0.55,0.45,1,1,1h17c0.55,0,1-0.45,1-1V9C21,8.45,20.55,8,20,8L20,8z" fill="currentColor"/><polygon points="21,4 2,4 2,6 21,6 21,4 		"/></g></g></svg>