<?xml version="1.0" encoding="utf-8"?><!--Generator: Adobe Illustrator 19.1.0, SVG Export Plug-In . SVG Version: 6.00 Build 0)--><svg version="1.1" xmlns="http://www.w3.org/2000/svg" xmlns:xlink="http://www.w3.org/1999/xlink" x="0px" y="0px" width="24px" height="24px" viewBox="0 0 24 24" enable-background="new 0 0 24 24" xml:space="preserve"><g id="Bounding_Boxes"/><g id="Outline"><g id="ui_x5F_spec_x5F_header"/><g><rect x="21" y="5" width="2" height="14"/><rect x="17" y="5" width="2" height="14"/><path d="M14,5H2C1.45,5,1,5.45,1,6v12c0,0.55,0.45,1,1,1h12c0.55,0,1-0.45,1-1V6C15,5.45,14.55,5,14,5z M13,17H3V7h10V17z" fill="currentColor"/><circle cx="8" cy="9.94" r="1.95"/><path d="M11.89,15.35c0-1.3-2.59-1.95-3.89-1.95s-3.89,0.65-3.89,1.95V16h7.78V15.35z" fill="currentColor"/></g></g></svg>