<?xml version="1.0" encoding="utf-8"?><!--Generator: Adobe Illustrator 19.1.0, SVG Export Plug-In . SVG Version: 6.00 Build 0)--><svg version="1.1" xmlns="http://www.w3.org/2000/svg" xmlns:xlink="http://www.w3.org/1999/xlink" x="0px" y="0px" width="24px" height="24px" viewBox="0 0 24 24" enable-background="new 0 0 24 24" xml:space="preserve"><g id="Bounding_Boxes"><g id="ui_x5F_spec_x5F_header_copy_3" display="none"/></g><g id="Rounded" display="none"><g id="ui_x5F_spec_x5F_header_copy_5"/><path display="inline" d="M17.63,5.84C17.27,5.33,16.67,5,16,5L5,5.01C3.9,5.01,3,5.9,3,7v10c0,1.1,0.9,1.99,2,1.99L16,19
		c0.67,0,1.27-0.33,1.63-0.84l3.96-5.58c0.25-0.35,0.25-0.81,0-1.16L17.63,5.84z" fill="currentColor"/></g><g id="Sharp" display="none"><g id="ui_x5F_spec_x5F_header_copy_4"/><path display="inline" d="M17.03,5L3,5.01v13.98L17.03,19L22,12L17.03,5z" fill="currentColor"/></g><g id="Outline"><g id="ui_x5F_spec_x5F_header" display="none"/><path d="M17.63,5.84C17.27,5.33,16.67,5,16,5L5,5.01C3.9,5.01,3,5.9,3,7v10c0,1.1,0.9,1.99,2,1.99L16,19
		c0.67,0,1.27-0.33,1.63-0.84L22,12L17.63,5.84z M16,17H5V7h11l3.55,5L16,17z" fill="currentColor"/></g><g id="Duotone" display="none"><g id="ui_x5F_spec_x5F_header_copy_2"/><g display="inline"><polygon opacity="0.3" points="16,7 5,7 5,17 16,17 19.55,12 		"/><path d="M17.63,5.84C17.27,5.33,16.67,5,16,5L5,5.01C3.9,5.01,3,5.9,3,7v10c0,1.1,0.9,1.99,2,1.99L16,19
			c0.67,0,1.27-0.33,1.63-0.84L22,12L17.63,5.84z M16,17H5V7h11l3.55,5L16,17z" fill="currentColor"/></g></g><g id="Material" display="none"><g id="ui_x5F_spec_x5F_header_copy"/><path display="inline" d="M17.63,5.84C17.27,5.33,16.67,5,16,5L5,5.01C3.9,5.01,3,5.9,3,7v10c0,1.1,0.9,1.99,2,1.99L16,19
		c0.67,0,1.27-0.33,1.63-0.84L22,12L17.63,5.84z" fill="currentColor"/></g></svg>