<?xml version="1.0" encoding="utf-8"?><!--Generator: Adobe Illustrator 19.1.0, SVG Export Plug-In . SVG Version: 6.00 Build 0)--><svg version="1.1" xmlns="http://www.w3.org/2000/svg" xmlns:xlink="http://www.w3.org/1999/xlink" x="0px" y="0px" width="24px" height="24px" viewBox="0 0 24 24" enable-background="new 0 0 24 24" xml:space="preserve"><g id="Bounding_Boxes"/><g id="Outline"><g id="ui_x5F_spec_x5F_header"/><g><polygon points="7.25,12.5 4.75,9 3.5,9 3.5,15 4.75,15 4.75,11.5 7.3,15 8.5,15 8.5,9 7.25,9 		"/><polygon points="9.5,15 13.5,15 13.5,13.75 11,13.75 11,12.64 13.5,12.64 13.5,11.38 11,11.38 11,10.26 13.5,10.26 13.5,9 9.5,9 
					"/><path d="M19.25,9v4.5h-1.12V9.99h-1.25v3.52h-1.13V9H14.5v5c0,0.55,0.45,1,1,1h4c0.55,0,1-0.45,1-1V9H19.25z" fill="currentColor"/></g></g></svg>