<?xml version="1.0" encoding="utf-8"?><!--Generator: Adobe Illustrator 19.1.0, SVG Export Plug-In . SVG Version: 6.00 Build 0)--><svg version="1.1" xmlns="http://www.w3.org/2000/svg" xmlns:xlink="http://www.w3.org/1999/xlink" x="0px" y="0px" width="24px" height="24px" viewBox="0 0 24 24" enable-background="new 0 0 24 24" xml:space="preserve"><g id="Bounding_Boxes" display="none"><g id="ui_x5F_spec_x5F_header_copy_3" display="inline"/></g><g id="Rounded"><g id="ui_x5F_spec_x5F_header_copy_5"/><path d="M12,2C6.48,2,2,6.48,2,12s4.48,10,10,10s10-4.48,10-10S17.52,2,12,2z M12,13L12,13c-0.55,0-1-0.45-1-1V8c0-0.55,0.45-1,1-1
		h0c0.55,0,1,0.45,1,1v4C13,12.55,12.55,13,12,13z M13,17h-2v-2h2V17z" fill="currentColor"/></g></svg>