<?xml version="1.0" encoding="utf-8"?><!--Generator: Adobe Illustrator 19.1.0, SVG Export Plug-In . SVG Version: 6.00 Build 0)--><svg version="1.1" xmlns="http://www.w3.org/2000/svg" xmlns:xlink="http://www.w3.org/1999/xlink" x="0px" y="0px" width="24px" height="24px" viewBox="0 0 24 24" enable-background="new 0 0 24 24" xml:space="preserve"><g id="Bounding_Boxes"/><g id="Rounded"><path d="M17.63,7H6.37C3.96,7,2,9.24,2,12s1.96,5,4.37,5h11.26c2.41,0,4.37-2.24,4.37-5S20.04,7,17.63,7z M11.11,10.6l-3.51,3.51
		c-0.1,0.1-0.23,0.15-0.35,0.15s-0.26-0.05-0.35-0.15l-1.86-1.86c-0.2-0.2-0.2-0.51,0-0.71s0.51-0.2,0.71,0l1.51,1.51l3.16-3.16
		c0.2-0.2,0.51-0.2,0.71,0S11.3,10.4,11.11,10.6z" fill="currentColor"/></g></svg>