<?xml version="1.0" encoding="utf-8"?><!--Generator: Adobe Illustrator 19.1.0, SVG Export Plug-In . SVG Version: 6.00 Build 0)--><svg version="1.1" xmlns="http://www.w3.org/2000/svg" xmlns:xlink="http://www.w3.org/1999/xlink" x="0px" y="0px" width="24px" height="24px" viewBox="0 0 24 24" enable-background="new 0 0 24 24" xml:space="preserve"><g id="Bounding_Boxes"><g id="ui_x5F_spec_x5F_header_copy_3"/></g><g id="Rounded"><g id="ui_x5F_spec_x5F_header_copy_5"/><path d="M4,15h6c0.55,0,1-0.45,1-1v0c0-0.55-0.45-1-1-1H4c-0.55,0-1,0.45-1,1v0C3,14.55,3.45,15,4,15z M4,19h6c0.55,0,1-0.45,1-1v0
		c0-0.55-0.45-1-1-1H4c-0.55,0-1,0.45-1,1v0C3,18.55,3.45,19,4,19z M4,11h6c0.55,0,1-0.45,1-1v0c0-0.55-0.45-1-1-1H4
		c-0.55,0-1,0.45-1,1v0C3,10.55,3.45,11,4,11z M3,6L3,6c0,0.55,0.45,1,1,1h6c0.55,0,1-0.45,1-1v0c0-0.55-0.45-1-1-1H4
		C3.45,5,3,5.45,3,6z M14,5h6c0.55,0,1,0.45,1,1v12c0,0.55-0.45,1-1,1h-6c-0.55,0-1-0.45-1-1V6C13,5.45,13.45,5,14,5z" fill="currentColor"/></g></svg>