<?xml version="1.0" encoding="utf-8"?><!--Generator: Adobe Illustrator 19.1.0, SVG Export Plug-In . SVG Version: 6.00 Build 0)--><svg version="1.1" xmlns="http://www.w3.org/2000/svg" xmlns:xlink="http://www.w3.org/1999/xlink" x="0px" y="0px" width="24px" height="24px" viewBox="0 0 24 24" enable-background="new 0 0 24 24" xml:space="preserve"><g id="Bounding_Boxes" display="none"><g id="ui_x5F_spec_x5F_header_copy_3" display="inline"/></g><g id="Rounded"><g id="ui_x5F_spec_x5F_header_copy_6"/><path d="M9,23h6c0.55,0,1-0.45,1-1v0c0-0.55-0.45-1-1-1H9c-0.55,0-1,0.45-1,1v0C8,22.55,8.45,23,9,23z M16,1.01L8,1
		C6.9,1,6,1.9,6,3v14c0,1.1,0.9,2,2,2h8c1.1,0,2-0.9,2-2V3C18,1.9,17.1,1.01,16,1.01z M16,15H8V5h8V15z" fill="currentColor"/></g></svg>