<?xml version="1.0" encoding="utf-8"?><!--Generator: Adobe Illustrator 19.1.0, SVG Export Plug-In . SVG Version: 6.00 Build 0)--><svg version="1.1" xmlns="http://www.w3.org/2000/svg" xmlns:xlink="http://www.w3.org/1999/xlink" x="0px" y="0px" width="24px" height="24px" viewBox="0 0 24 24" enable-background="new 0 0 24 24" xml:space="preserve"><g id="Bounding_Boxes"><g id="ui_x5F_spec_x5F_header_copy_2"/></g><g id="Rounded"><g><path d="M8.88,9.94l0.53,0.53c0.29,0.29,0.77,0.29,1.06,0l0,0c0.29-0.29,0.29-0.77,0-1.06L9.59,8.53c-0.39-0.39-1.02-0.39-1.41,0
			L7.29,9.41C7,9.7,7,10.18,7.29,10.47l0,0c0.29,0.29,0.77,0.29,1.06,0L8.88,9.94z" fill="currentColor"/><path d="M12,17.5c2.03,0,3.8-1.11,4.75-2.75c0.19-0.33-0.05-0.75-0.44-0.75H7.69c-0.38,0-0.63,0.42-0.44,0.75
			C8.2,16.39,9.97,17.5,12,17.5z" fill="currentColor"/><path d="M13.53,10.47L13.53,10.47c0.29,0.29,0.77,0.29,1.06,0l0.53-0.53l0.53,0.53c0.29,0.29,0.77,0.29,1.06,0v0
			c0.29-0.29,0.29-0.77,0-1.06l-0.88-0.88c-0.39-0.39-1.02-0.39-1.41,0l-0.88,0.88C13.24,9.7,13.24,10.18,13.53,10.47z" fill="currentColor"/><path d="M11.99,2C6.47,2,2,6.47,2,12c0,5.53,4.47,10,9.99,10S22,17.53,22,12C22,6.47,17.52,2,11.99,2z M12,20c-4.42,0-8-3.58-8-8
			c0-4.42,3.58-8,8-8s8,3.58,8,8C20,16.42,16.42,20,12,20z" fill="currentColor"/></g></g></svg>