<?xml version="1.0" encoding="utf-8"?><!--Generator: Adobe Illustrator 19.1.0, SVG Export Plug-In . SVG Version: 6.00 Build 0)--><svg version="1.1" xmlns="http://www.w3.org/2000/svg" xmlns:xlink="http://www.w3.org/1999/xlink" x="0px" y="0px" width="24px" height="24px" viewBox="0 0 24 24" enable-background="new 0 0 24 24" xml:space="preserve"><g id="Bounding_Boxes"><g id="ui_x5F_spec_x5F_header_copy_3"/></g><g id="Rounded"><g id="ui_x5F_spec_x5F_header_copy_5"/><path d="M8,19h8c0.55,0,1-0.45,1-1V5c0-0.55-0.45-1-1-1H8C7.45,4,7,4.45,7,5v13C7,18.55,7.45,19,8,19z M3,17h2c0.55,0,1-0.45,1-1V7
		c0-0.55-0.45-1-1-1H3C2.45,6,2,6.45,2,7v9C2,16.55,2.45,17,3,17z M18,7v9c0,0.55,0.45,1,1,1h2c0.55,0,1-0.45,1-1V7
		c0-0.55-0.45-1-1-1h-2C18.45,6,18,6.45,18,7z" fill="currentColor"/></g></svg>