<?xml version="1.0" encoding="utf-8"?><!--Generator: Adobe Illustrator 19.1.0, SVG Export Plug-In . SVG Version: 6.00 Build 0)--><svg version="1.1" xmlns="http://www.w3.org/2000/svg" xmlns:xlink="http://www.w3.org/1999/xlink" x="0px" y="0px" width="24px" height="24px" viewBox="0 0 24 24" enable-background="new 0 0 24 24" xml:space="preserve"><g id="Bounding_Boxes"/><g id="Rounded"><g><path d="M11.15,3.4L7.43,9.48C7.02,10.14,7.5,11,8.28,11h7.43c0.78,0,1.26-0.86,0.85-1.52L12.85,3.4
			C12.46,2.76,11.54,2.76,11.15,3.4z" fill="currentColor"/><circle cx="17.5" cy="17.5" r="4.5"/><path d="M4,21.5h6c0.55,0,1-0.45,1-1v-6c0-0.55-0.45-1-1-1H4c-0.55,0-1,0.45-1,1v6C3,21.05,3.45,21.5,4,21.5z" fill="currentColor"/></g></g></svg>