<?xml version="1.0" encoding="utf-8"?><!--Generator: Adobe Illustrator 19.1.0, SVG Export Plug-In . SVG Version: 6.00 Build 0)--><svg version="1.1" xmlns="http://www.w3.org/2000/svg" xmlns:xlink="http://www.w3.org/1999/xlink" x="0px" y="0px" width="24px" height="24px" viewBox="0 0 24 24" enable-background="new 0 0 24 24" xml:space="preserve"><g id="Bounding_Boxes"/><g id="Rounded"><path d="M14.65,4.98l-5-1.75c-0.42-0.15-0.88-0.15-1.3-0.01L4.36,4.56C3.55,4.84,3,5.6,3,6.46v11.85c0,1.41,1.41,2.37,2.72,1.86
		l2.93-1.14c0.22-0.09,0.47-0.09,0.69-0.01l5,1.75c0.42,0.15,0.88,0.15,1.3,0.01l3.99-1.34c0.81-0.27,1.36-1.04,1.36-1.9V5.69
		c0-1.41-1.41-2.37-2.72-1.86l-2.93,1.14C15.12,5.05,14.88,5.06,14.65,4.98z M15,18.89l-6-2.11V5.11l6,2.11V18.89z" fill="currentColor"/></g></svg>