<?xml version="1.0" encoding="utf-8"?><!--Generator: Adobe Illustrator 19.1.0, SVG Export Plug-In . SVG Version: 6.00 Build 0)--><svg version="1.1" xmlns="http://www.w3.org/2000/svg" xmlns:xlink="http://www.w3.org/1999/xlink" x="0px" y="0px" width="24px" height="24px" viewBox="0 0 24 24" enable-background="new 0 0 24 24" xml:space="preserve"><g id="Bounding_Boxes"><g id="ui_x5F_spec_x5F_header_copy_3"/></g><g id="Rounded"><g id="ui_x5F_spec_x5F_header_copy_7"/><path d="M19,3H5.01c-1.1,0-2,0.9-2,2v14c0,1.1,0.9,2,2,2H19c1.1,0,2-0.9,2-2V5C21,3.9,20.1,3,19,3z M15.01,10.5
		c0,0.83-0.67,1.5-1.5,1.5c0.83,0,1.5,0.67,1.5,1.5V15c0,1.11-0.9,2-2,2H10c-0.55,0-1-0.45-1-1v0c0-0.55,0.45-1,1-1h3.01L13,13h-1
		c-0.55,0-1-0.45-1-1v0c0-0.55,0.45-1,1-1h1l0.01-2H10C9.45,9,9.01,8.55,9.01,8v0c0-0.55,0.44-1,0.99-1h3.01c1.1,0,2,0.9,2,2V10.5z" fill="currentColor"/></g></svg>