<?xml version="1.0" encoding="utf-8"?><!--Generator: Adobe Illustrator 19.1.0, SVG Export Plug-In . SVG Version: 6.00 Build 0)--><svg version="1.1" xmlns="http://www.w3.org/2000/svg" xmlns:xlink="http://www.w3.org/1999/xlink" x="0px" y="0px" width="24px" height="24px" viewBox="0 0 24 24" enable-background="new 0 0 24 24" xml:space="preserve"><g id="Bounding_Boxes"><g id="ui_x5F_spec_x5F_header_copy_3"/><rect fill="none" width="24" height="24"/></g><g id="Rounded"><g id="ui_x5F_spec_x5F_header_copy_7"/><path d="M2,5L2,5c0.55,0,1,0.45,1,1v12c0,0.55-0.45,1-1,1h0c-0.55,0-1-0.45-1-1V6C1,5.45,1.45,5,2,5z M6,5L6,5c0.55,0,1,0.45,1,1
		v12c0,0.55-0.45,1-1,1h0c-0.55,0-1-0.45-1-1V6C5,5.45,5.45,5,6,5z M22,5H10C9.45,5,9,5.45,9,6v12c0,0.55,0.45,1,1,1h12
		c0.55,0,1-0.45,1-1V6C23,5.45,22.55,5,22,5z M11.64,16.19l1.47-1.86c0.2-0.25,0.57-0.25,0.78-0.01l1.4,1.68l2.1-2.71
		c0.2-0.26,0.59-0.26,0.79,0l2.21,2.9c0.25,0.33,0.02,0.8-0.4,0.8h-7.96C11.62,17,11.38,16.52,11.64,16.19z" fill="currentColor"/></g></svg>