<?xml version="1.0" encoding="utf-8"?><!--Generator: Adobe Illustrator 19.1.0, SVG Export Plug-In . SVG Version: 6.00 Build 0)--><svg version="1.1" xmlns="http://www.w3.org/2000/svg" xmlns:xlink="http://www.w3.org/1999/xlink" x="0px" y="0px" width="24px" height="24px" viewBox="0 0 24 24" enable-background="new 0 0 24 24" xml:space="preserve"><g id="Bounding_Boxes" display="none"><g id="ui_x5F_spec_x5F_header_copy_3" display="inline"/><g display="inline"><defs><rect id="SVGID_1_" width="24" height="24"/></defs><clipPath id="SVGID_2_"><use xlink:href="#SVGID_1_" overflow="visible"/></clipPath></g></g><g id="Rounded"><g id="ui_x5F_spec_x5F_header_copy_6"/><path d="M20,18c1.1,0,2-0.9,2-2V6c0-1.1-0.9-2-2-2H4C2.9,4,2,4.9,2,6v10c0,1.1,0.9,2,2,2H1c-0.55,0-1,0.45-1,1v0c0,0.55,0.45,1,1,1
		h22c0.55,0,1-0.45,1-1v0c0-0.55-0.45-1-1-1H20z M5,6h14c0.55,0,1,0.45,1,1v8c0,0.55-0.45,1-1,1H5c-0.55,0-1-0.45-1-1V7
		C4,6.45,4.45,6,5,6z" fill="currentColor"/></g></svg>