<?xml version="1.0" encoding="utf-8"?><!--Generator: Adobe Illustrator 19.1.0, SVG Export Plug-In . SVG Version: 6.00 Build 0)--><svg version="1.1" xmlns="http://www.w3.org/2000/svg" xmlns:xlink="http://www.w3.org/1999/xlink" x="0px" y="0px" width="24px" height="24px" viewBox="0 0 24 24" enable-background="new 0 0 24 24" xml:space="preserve"><g id="Bounding_Boxes" display="none"><g id="ui_x5F_spec_x5F_header_copy_3" display="inline"/></g><g id="Rounded"><path d="M18,0H6C4.34,0,3,1.34,3,3v18c0,1.66,1.34,3,3,3h12c1.66,0,3-1.34,3-3V3C21,1.34,19.66,0,18,0z M13.5,22h-3
		c-0.28,0-0.5-0.22-0.5-0.5c0-0.28,0.22-0.5,0.5-0.5h3c0.28,0,0.5,0.22,0.5,0.5C14,21.78,13.78,22,13.5,22z M19.25,19H4.75V3h14.5
		V19z" fill="currentColor"/><g id="ui_x5F_spec_x5F_header_copy_6"/></g></svg>