<?xml version="1.0" encoding="utf-8"?><!--Generator: Adobe Illustrator 19.1.0, SVG Export Plug-In . SVG Version: 6.00 Build 0)--><svg version="1.1" xmlns="http://www.w3.org/2000/svg" xmlns:xlink="http://www.w3.org/1999/xlink" x="0px" y="0px" width="24px" height="24px" viewBox="0 0 24 24" enable-background="new 0 0 24 24" xml:space="preserve"><g id="Header_x2F_BG" display="none"><rect x="-402" y="-446" display="inline" fill="#F1F1F2" width="520" height="520"/></g><g id="Bounding_Boxes"><g id="ui_x5F_spec_x5F_header_copy_3" display="none"/></g><g id="Rounded"><g id="ui_x5F_spec_x5F_header_copy_5" display="none"/><path d="M6.14,11.86l-2.78,2.79c-0.19,0.2-0.19,0.51,0,0.71l2.78,2.79c0.31,0.32,0.85,0.09,0.85-0.35V16H13c0.55,0,1-0.45,1-1v0
		c0-0.55-0.45-1-1-1H6.99v-1.79C6.99,11.76,6.45,11.54,6.14,11.86z M20.65,8.65l-2.78-2.79c-0.31-0.32-0.85-0.09-0.85,0.35V8H11
		c-0.55,0-1,0.45-1,1v0c0,0.55,0.45,1,1,1h6.01v1.79c0,0.45,0.54,0.67,0.85,0.35l2.78-2.79C20.84,9.16,20.84,8.84,20.65,8.65z" fill="currentColor"/></g><g id="Sharp" display="none"><g id="ui_x5F_spec_x5F_header_copy_4"/><path display="inline" d="M6.99,11L3,15l3.99,4v-3H14v-2H6.99V11z M21,9l-3.99-4v3H10v2h7.01v3L21,9z" fill="currentColor"/></g><g id="Outline" display="none"><g id="ui_x5F_spec_x5F_header"/><path display="inline" d="M6.99,11L3,15l3.99,4v-3H14v-2H6.99V11z M21,9l-3.99-4v3H10v2h7.01v3L21,9z" fill="currentColor"/></g><g id="Duotone" display="none"><g id="ui_x5F_spec_x5F_header_copy_2"/><g display="inline"><path d="M6.99,11L3,15l3.99,4v-3H14v-2H6.99V11z M21,9l-3.99-4v3H10v2h7.01v3L21,9z" fill="currentColor"/></g></g><g id="Material" display="none"><g id="ui_x5F_spec_x5F_header_copy"/><path display="inline" d="M6.99,11L3,15l3.99,4v-3H14v-2H6.99V11z M21,9l-3.99-4v3H10v2h7.01v3L21,9z" fill="currentColor"/></g></svg>