<?xml version="1.0" encoding="utf-8"?><!--Generator: Adobe Illustrator 19.1.0, SVG Export Plug-In . SVG Version: 6.00 Build 0)--><svg version="1.1" xmlns="http://www.w3.org/2000/svg" xmlns:xlink="http://www.w3.org/1999/xlink" x="0px" y="0px" width="24px" height="24px" viewBox="0 0 24 24" enable-background="new 0 0 24 24" xml:space="preserve"><g id="Bounding_Boxes"><g id="ui_x5F_spec_x5F_header_copy_3" display="none"/></g><g id="Rounded_1_"><g id="ui_x5F_spec_x5F_header_copy_6" display="none"/><g><path d="M21.94,11.23C21.57,8.76,19.32,7,16.82,7h-2.87C13.43,7,13,7.43,13,7.95s0.43,0.95,0.95,0.95h2.9
			c1.6,0,3.04,1.14,3.22,2.73c0.17,1.43-0.64,2.69-1.85,3.22l1.4,1.4C21.25,15.23,22.26,13.34,21.94,11.23z" fill="currentColor"/><path d="M4.12,3.56c-0.39-0.39-1.02-0.39-1.41,0s-0.39,1.02,0,1.41l2.4,2.4c-1.94,0.8-3.27,2.77-3.09,5.04
			C2.23,15.05,4.59,17,7.23,17h2.82c0.52,0,0.95-0.43,0.95-0.95c0-0.52-0.43-0.95-0.95-0.95H7.16c-1.63,0-3.1-1.19-3.25-2.82
			c-0.15-1.72,1.11-3.17,2.75-3.35l2.1,2.1C8.33,11.12,8,11.49,8,11.95v0.1C8,12.57,8.43,13,8.95,13h1.78L13,15.27V17h1.73l3.3,3.3
			c0.39,0.39,1.02,0.39,1.41,0h0c0.39-0.39,0.39-1.02,0-1.41L4.12,3.56z" fill="currentColor"/><path d="M16,11.95c0-0.52-0.43-0.95-0.95-0.95h-0.66l1.49,1.49c0.07-0.13,0.12-0.28,0.12-0.44V11.95z" fill="currentColor"/></g></g></svg>