<?xml version="1.0" encoding="utf-8"?><!--Generator: Adobe Illustrator 19.1.0, SVG Export Plug-In . SVG Version: 6.00 Build 0)--><svg version="1.1" xmlns="http://www.w3.org/2000/svg" xmlns:xlink="http://www.w3.org/1999/xlink" x="0px" y="0px" width="24px" height="24px" viewBox="0 0 24 24" enable-background="new 0 0 24 24" xml:space="preserve"><g id="Bounding_Boxes"><g id="ui_x5F_spec_x5F_header_copy_2"/></g><g id="Rounded"><g id="ui_x5F_spec_x5F_header_copy_6"/><path d="M13,16.12c3.37-0.4,6.01-3.19,6.16-6.64c0.17-3.87-3.02-7.25-6.89-7.31c-3.92-0.05-7.1,3.1-7.1,7
		c0,3.47,2.52,6.34,5.83,6.89V20H6c-0.55,0-1,0.45-1,1v0c0,0.55,0.45,1,1,1h12c0.55,0,1-0.45,1-1v0c0-0.55-0.45-1-1-1h-5V16.12z" fill="currentColor"/></g></svg>