<?xml version="1.0" encoding="utf-8"?><!--Generator: Adobe Illustrator 19.1.0, SVG Export Plug-In . SVG Version: 6.00 Build 0)--><svg version="1.1" xmlns="http://www.w3.org/2000/svg" xmlns:xlink="http://www.w3.org/1999/xlink" x="0px" y="0px" width="24px" height="24px" viewBox="0 0 24 24" enable-background="new 0 0 24 24" xml:space="preserve"><g id="Bounding_Boxes"/><g id="Rounded"><g><path d="M20.16,7.8C20.07,7.34,19.66,7,19.18,7H4.82C4.34,7,3.93,7.34,3.84,7.8L3,12v1c0,0.55,0.45,1,1,1v5c0,0.55,0.45,1,1,1h8
			c0.55,0,1-0.45,1-1v-5h4v5c0,0.55,0.45,1,1,1s1-0.45,1-1v-5c0.55,0,1-0.45,1-1v-1L20.16,7.8z M12,18H6v-4h6V18z" fill="currentColor"/><path d="M5,6h14c0.55,0,1-0.45,1-1c0-0.55-0.45-1-1-1H5C4.45,4,4,4.45,4,5C4,5.55,4.45,6,5,6z" fill="currentColor"/></g></g></svg>