<?xml version="1.0" encoding="utf-8"?><!--Generator: Adobe Illustrator 19.1.0, SVG Export Plug-In . SVG Version: 6.00 Build 0)--><svg version="1.1" xmlns="http://www.w3.org/2000/svg" xmlns:xlink="http://www.w3.org/1999/xlink" x="0px" y="0px" width="24px" height="24px" viewBox="0 0 24 24" enable-background="new 0 0 24 24" xml:space="preserve"><g id="Bounding_Boxes"><g id="ui_x5F_spec_x5F_header_copy_3"/><rect fill="none" width="24" height="24"/></g><g id="Rounded"><g id="ui_x5F_spec_x5F_header_copy_7"/><path d="M19,3H5C3.9,3,3,3.9,3,5v14c0,1.1,0.9,2,2,2h14c1.1,0,2-0.9,2-2V5C21,3.9,20.1,3,19,3z M6.75,7h3.5
		C10.66,7,11,7.34,11,7.75v0c0,0.41-0.34,0.75-0.75,0.75h-3.5C6.34,8.5,6,8.16,6,7.75v0C6,7.34,6.34,7,6.75,7z M18,19H5L19,5v13
		C19,18.55,18.55,19,18,19z M14.5,16v1.25c0,0.41,0.34,0.75,0.75,0.75h0c0.41,0,0.75-0.34,0.75-0.75V16h1.25
		c0.41,0,0.75-0.34,0.75-0.75v0c0-0.41-0.34-0.75-0.75-0.75H16v-1.25c0-0.41-0.34-0.75-0.75-0.75h0c-0.41,0-0.75,0.34-0.75,0.75
		v1.25h-1.25c-0.41,0-0.75,0.34-0.75,0.75v0c0,0.41,0.34,0.75,0.75,0.75H14.5z" fill="currentColor"/></g></svg>