<?xml version="1.0" encoding="utf-8"?><!--Generator: Adobe Illustrator 19.1.0, SVG Export Plug-In . SVG Version: 6.00 Build 0)--><svg version="1.1" xmlns="http://www.w3.org/2000/svg" xmlns:xlink="http://www.w3.org/1999/xlink" x="0px" y="0px" width="24px" height="24px" viewBox="0 0 24 24" enable-background="new 0 0 24 24" xml:space="preserve"><g id="Bounding_Boxes"/><g id="Rounded"><g><path d="M16,6v6c0,1.1,0.9,2,2,2h1v7c0,0.55,0.45,1,1,1h0c0.55,0,1-0.45,1-1V3.13c0-0.65-0.61-1.13-1.24-0.98
			C17.6,2.68,16,4.51,16,6z" fill="currentColor"/><path d="M11,9H9V3c0-0.55-0.45-1-1-1h0C7.45,2,7,2.45,7,3v6H5V3c0-0.55-0.45-1-1-1h0C3.45,2,3,2.45,3,3v6c0,2.21,1.79,4,4,4v8
			c0,0.55,0.45,1,1,1h0c0.55,0,1-0.45,1-1v-8c2.21,0,4-1.79,4-4V3c0-0.55-0.45-1-1-1h0c-0.55,0-1,0.45-1,1V9z" fill="currentColor"/></g></g></svg>