<?xml version="1.0" encoding="utf-8"?><!--Generator: Adobe Illustrator 19.1.0, SVG Export Plug-In . SVG Version: 6.00 Build 0)--><svg version="1.1" xmlns="http://www.w3.org/2000/svg" xmlns:xlink="http://www.w3.org/1999/xlink" x="0px" y="0px" width="24px" height="24px" viewBox="0 0 24 24" enable-background="new 0 0 24 24" xml:space="preserve"><g id="Bounding_Boxes"><g id="ui_x5F_spec_x5F_header_copy_3"/></g><g id="Rounded"><g id="ui_x5F_spec_x5F_header_copy_7"/><path d="M19,7H5C3.9,7,3,7.9,3,9v6c0,1.1,0.9,2,2,2h14c1.1,0,2-0.9,2-2V9C21,7.9,20.1,7,19,7z M18,15H6c-0.55,0-1-0.45-1-1v-4
		c0-0.55,0.45-1,1-1h12c0.55,0,1,0.45,1,1v4C19,14.55,18.55,15,18,15z" fill="currentColor"/></g></svg>