<?xml version="1.0" encoding="utf-8"?><!--Generator: Adobe Illustrator 19.1.0, SVG Export Plug-In . SVG Version: 6.00 Build 0)--><svg version="1.1" xmlns="http://www.w3.org/2000/svg" xmlns:xlink="http://www.w3.org/1999/xlink" x="0px" y="0px" width="24px" height="24px" viewBox="0 0 24 24" enable-background="new 0 0 24 24" xml:space="preserve"><g id="Bounding_Boxes"><g id="ui_x5F_spec_x5F_header_copy_3"/></g><g id="Rounded"><g id="ui_x5F_spec_x5F_header_copy_6"/><path d="M18,1.01L8,1C6.9,1,6,1.9,6,3v3c0,0.55,0.45,1,1,1h0c0.55,0,1-0.45,1-1V5h10v14H8v-1c0-0.55-0.45-1-1-1h0
		c-0.55,0-1,0.45-1,1v3c0,1.1,0.9,2,2,2h10c1.1,0,2-0.9,2-2V3C20,1.9,19.1,1.01,18,1.01z M11,15L11,15c0.55,0,1-0.45,1-1V9
		c0-0.55-0.45-1-1-1H6C5.45,8,5,8.45,5,9v0c0,0.55,0.45,1,1,1h2.59L3.7,14.89c-0.39,0.39-0.39,1.02,0,1.41h0
		c0.39,0.39,1.02,0.39,1.41,0L10,11.41V14C10,14.55,10.45,15,11,15z" fill="currentColor"/></g></svg>