<?xml version="1.0" encoding="utf-8"?><!--Generator: Adobe Illustrator 19.1.0, SVG Export Plug-In . SVG Version: 6.00 Build 0)--><svg version="1.1" xmlns="http://www.w3.org/2000/svg" xmlns:xlink="http://www.w3.org/1999/xlink" x="0px" y="0px" width="24px" height="24px" viewBox="0 0 24 24" enable-background="new 0 0 24 24" xml:space="preserve"><g id="Bounding_Boxes"><g id="ui_x5F_spec_x5F_header_copy_3"/></g><g id="Rounded"><g id="ui_x5F_spec_x5F_header_copy_6"/><path d="M18,4V3c0-0.55-0.45-1-1-1H5C4.45,2,4,2.45,4,3v4c0,0.55,0.45,1,1,1h12c0.55,0,1-0.45,1-1V6h1v4h-9c-0.55,0-1,0.45-1,1v10
		c0,0.55,0.45,1,1,1h2c0.55,0,1-0.45,1-1v-9h7c0.55,0,1-0.45,1-1V5c0-0.55-0.45-1-1-1H18z" fill="currentColor"/></g></svg>