<?xml version="1.0" encoding="utf-8"?><!--Generator: Adobe Illustrator 19.1.0, SVG Export Plug-In . SVG Version: 6.00 Build 0)--><svg version="1.1" xmlns="http://www.w3.org/2000/svg" xmlns:xlink="http://www.w3.org/1999/xlink" x="0px" y="0px" width="24px" height="24px" viewBox="0 0 24 24" enable-background="new 0 0 24 24" xml:space="preserve"><g id="Bounding_Boxes"><g id="ui_x5F_spec_x5F_header_copy_3"/></g><g id="Rounded"><g id="ui_x5F_spec_x5F_header_copy_5"/><path d="M11,18h3c0.55,0,1-0.45,1-1V6c0-0.55-0.45-1-1-1h-3c-0.55,0-1,0.45-1,1v11C10,17.55,10.45,18,11,18z M5,18h3
		c0.55,0,1-0.45,1-1V6c0-0.55-0.45-1-1-1H5C4.45,5,4,5.45,4,6v11C4,17.55,4.45,18,5,18z M16,6v11c0,0.55,0.45,1,1,1h3
		c0.55,0,1-0.45,1-1V6c0-0.55-0.45-1-1-1h-3C16.45,5,16,5.45,16,6z" fill="currentColor"/></g></svg>