<?xml version="1.0" encoding="utf-8"?><!--Generator: Adobe Illustrator 19.1.0, SVG Export Plug-In . SVG Version: 6.00 Build 0)--><svg version="1.1" xmlns="http://www.w3.org/2000/svg" xmlns:xlink="http://www.w3.org/1999/xlink" x="0px" y="0px" width="24px" height="24px" viewBox="0 0 24 24" enable-background="new 0 0 24 24" xml:space="preserve"><g id="Bounding_Boxes"><g id="ui_x5F_spec_x5F_header_copy_3"/></g><g id="Rounded"><g id="ui_x5F_spec_x5F_header_copy_6"/><path d="M6.4,9.2h0.2C7.37,9.2,8,9.83,8,10.6v7C8,18.37,7.37,19,6.6,19H6.4C5.63,19,5,18.37,5,17.6v-7C5,9.83,5.63,9.2,6.4,9.2z
		 M12,5L12,5c0.77,0,1.4,0.63,1.4,1.4v11.2c0,0.77-0.63,1.4-1.4,1.4h0c-0.77,0-1.4-0.63-1.4-1.4V6.4C10.6,5.63,11.23,5,12,5z
		 M17.6,13L17.6,13c0.77,0,1.4,0.63,1.4,1.4v3.2c0,0.77-0.63,1.4-1.4,1.4h0c-0.77,0-1.4-0.63-1.4-1.4v-3.2
		C16.2,13.63,16.83,13,17.6,13z" fill="currentColor"/></g></svg>