<?xml version="1.0" encoding="utf-8"?><!--Generator: Adobe Illustrator 19.1.0, SVG Export Plug-In . SVG Version: 6.00 Build 0)--><svg version="1.1" xmlns="http://www.w3.org/2000/svg" xmlns:xlink="http://www.w3.org/1999/xlink" x="0px" y="0px" width="24px" height="24px" viewBox="0 0 24 24" enable-background="new 0 0 24 24" xml:space="preserve"><g id="Bounding_Boxes"><g id="ui_x5F_spec_x5F_header_copy_3"/><g><defs><rect id="SVGID_17_" width="24" height="24"/></defs><clipPath id="SVGID_2_"><use xlink:href="#SVGID_17_" overflow="visible"/></clipPath></g></g><g id="Rounded"><g id="ui_x5F_spec_x5F_header_copy_5"/><path d="M9,11.24V7.5C9,6.12,10.12,5,11.5,5S14,6.12,14,7.5v3.74c1.21-0.81,2-2.18,2-3.74C16,5.01,13.99,3,11.5,3S7,5.01,7,7.5
		C7,9.06,7.79,10.43,9,11.24z M14.5,13.71c-0.28-0.14-0.58-0.21-0.89-0.21H13v-6C13,6.67,12.33,6,11.5,6S10,6.67,10,7.5v10.74
		l-3.44-0.72c-0.37-0.08-0.76,0.04-1.03,0.31l0,0c-0.43,0.44-0.43,1.14,0,1.58l4.01,4.01C9.92,23.79,10.43,24,10.96,24h6.1
		c1,0,1.84-0.73,1.98-1.72l0.63-4.47c0.12-0.85-0.32-1.69-1.09-2.07L14.5,13.71z" fill="currentColor"/></g></svg>