<?xml version="1.0" encoding="utf-8"?><!--Generator: Adobe Illustrator 19.1.0, SVG Export Plug-In . SVG Version: 6.00 Build 0)--><svg version="1.1" xmlns="http://www.w3.org/2000/svg" xmlns:xlink="http://www.w3.org/1999/xlink" x="0px" y="0px" width="24px" height="24px" viewBox="0 0 24 24" enable-background="new 0 0 24 24" xml:space="preserve"><g id="Bounding_Boxes"><g id="ui_x5F_spec_x5F_header_copy_3" display="none"/></g><g id="Rounded_1_"><g id="ui_x5F_spec_x5F_header_copy_6" display="none"/><path d="M4,18h4c0.55,0,1-0.45,1-1v0c0-0.55-0.45-1-1-1H4c-0.55,0-1,0.45-1,1v0C3,17.55,3.45,18,4,18z M3,7L3,7c0,0.55,0.45,1,1,1
		h16c0.55,0,1-0.45,1-1v0c0-0.55-0.45-1-1-1H4C3.45,6,3,6.45,3,7z M4,13h10c0.55,0,1-0.45,1-1v0c0-0.55-0.45-1-1-1H4
		c-0.55,0-1,0.45-1,1v0C3,12.55,3.45,13,4,13z" fill="currentColor"/></g></svg>