<?xml version="1.0" encoding="utf-8"?><!--Generator: Adobe Illustrator 19.1.0, SVG Export Plug-In . SVG Version: 6.00 Build 0)--><svg version="1.1" xmlns="http://www.w3.org/2000/svg" xmlns:xlink="http://www.w3.org/1999/xlink" x="0px" y="0px" width="24px" height="24px" viewBox="0 0 24 24" enable-background="new 0 0 24 24" xml:space="preserve"><g id="Bounding_Boxes"><g id="ui_x5F_spec_x5F_header_copy_3" display="none"/></g><g id="Rounded_1_"><g id="ui_x5F_spec_x5F_header_copy_6" display="none"/><path d="M21.99,8c0-0.72-0.37-1.35-0.94-1.7l-8.04-4.71c-0.62-0.37-1.4-0.37-2.02,0L2.95,6.3C2.38,6.65,2,7.28,2,8v10
		c0,1.1,0.9,2,2,2h16c1.1,0,2-0.9,2-2L21.99,8z M10.94,12.34l-7.2-4.5l7.25-4.25c0.62-0.37,1.4-0.37,2.02,0l7.25,4.25l-7.2,4.5
		C12.41,12.74,11.59,12.74,10.94,12.34z" fill="currentColor"/></g></svg>