<?xml version="1.0" encoding="utf-8"?><!--Generator: Adobe Illustrator 19.1.0, SVG Export Plug-In . SVG Version: 6.00 Build 0)--><svg version="1.1" xmlns="http://www.w3.org/2000/svg" xmlns:xlink="http://www.w3.org/1999/xlink" x="0px" y="0px" width="24px" height="24px" viewBox="0 0 24 24" enable-background="new 0 0 24 24" xml:space="preserve"><g id="Bounding_Boxes"/><g id="Rounded"><path d="M12,2C8.14,2,5,5.14,5,9c0,4.17,4.42,9.92,6.24,12.11c0.4,0.48,1.13,0.48,1.53,0C14.58,18.92,19,13.17,19,9
		C19,5.14,15.86,2,12,2z M9.95,12.49H8.51v-1.44l3.93-3.92l1.43,1.43L9.95,12.49z M15.29,7.15l-0.7,0.7l-1.44-1.44l0.7-0.7
		c0.15-0.15,0.39-0.15,0.54,0l0.9,0.9C15.44,6.76,15.44,7,15.29,7.15z" fill="currentColor"/></g></svg>