<?xml version="1.0" encoding="utf-8"?><!--Generator: Adobe Illustrator 19.1.0, SVG Export Plug-In . SVG Version: 6.00 Build 0)--><svg version="1.1" xmlns="http://www.w3.org/2000/svg" xmlns:xlink="http://www.w3.org/1999/xlink" x="0px" y="0px" width="24px" height="24px" viewBox="0 0 24 24" enable-background="new 0 0 24 24" xml:space="preserve"><g id="Bounding_Boxes"><g id="ui_x5F_spec_x5F_header_copy_3"/></g><g id="Rounded"><g id="ui_x5F_spec_x5F_header_copy_6"/><g><path d="M23.64,7C23.19,6.66,18.71,3,12,3c-1.32,0-2.55,0.14-3.69,0.38l10.12,10.12L23.64,7z" fill="currentColor"/><path d="M4.12,2.01c-0.39-0.39-1.02-0.39-1.41,0c-0.39,0.39-0.39,1.02,0,1.41l1.35,1.35C1.91,5.76,0.59,6.82,0.36,7l10.08,12.56
			c0.8,1,2.32,1,3.12,0l2.35-2.93l2.61,2.61c0.39,0.39,1.02,0.39,1.41,0c0.39-0.39,0.39-1.02,0-1.41L4.12,2.01z" fill="currentColor"/></g></g></svg>