<?xml version="1.0" encoding="utf-8"?><!--Generator: Adobe Illustrator 19.1.0, SVG Export Plug-In . SVG Version: 6.00 Build 0)--><svg version="1.1" xmlns="http://www.w3.org/2000/svg" xmlns:xlink="http://www.w3.org/1999/xlink" x="0px" y="0px" width="24px" height="24px" viewBox="0 0 24 24" enable-background="new 0 0 24 24" xml:space="preserve"><g id="Bounding_Boxes"><g id="ui_x5F_spec_x5F_header_copy_3"/><g><defs><rect id="SVGID_1_" y="0" width="24" height="24"/></defs><clipPath id="SVGID_2_"><use xlink:href="#SVGID_1_" overflow="visible"/></clipPath></g></g><g id="Rounded"><g id="ui_x5F_spec_x5F_header_copy_5"/><path d="M12,2C6.5,2,2,6.5,2,12s4.5,10,10,10s10-4.5,10-10S17.5,2,12,2z M15.55,15.8l-4.08-2.51c-0.3-0.18-0.48-0.5-0.48-0.85V7.75
		C11,7.34,11.34,7,11.75,7h0c0.41,0,0.75,0.34,0.75,0.75v4.45l3.84,2.31c0.36,0.22,0.48,0.69,0.26,1.05v0
		C16.38,15.91,15.91,16.02,15.55,15.8z" fill="currentColor"/></g></svg>