<?xml version="1.0" encoding="utf-8"?><!--Generator: Adobe Illustrator 19.1.0, SVG Export Plug-In . SVG Version: 6.00 Build 0)--><svg version="1.1" xmlns="http://www.w3.org/2000/svg" xmlns:xlink="http://www.w3.org/1999/xlink" x="0px" y="0px" width="24px" height="24px" viewBox="0 0 24 24" enable-background="new 0 0 24 24" xml:space="preserve"><g id="Bounding_Boxes"><g id="ui_x5F_spec_x5F_header_copy_2"/></g><g id="Rounded"><g id="ui_x5F_spec_x5F_header_copy_6"/><path d="M19,3H5C3.9,3,3,3.9,3,5v14c0,1.1,0.9,2,2,2h14c1.1,0,2-0.9,2-2V5C21,3.9,20.1,3,19,3z M15,11c0,1.1-0.9,2-2,2h-2v2h3
		c0.55,0,1,0.45,1,1v0c0,0.55-0.45,1-1,1h-4c-0.55,0-1-0.45-1-1v-3c0-1.1,0.9-2,2-2h2V9h-3C9.45,9,9,8.55,9,8v0c0-0.55,0.45-1,1-1h3
		c1.1,0,2,0.9,2,2V11z" fill="currentColor"/></g></svg>