<?xml version="1.0" encoding="utf-8"?><!--Generator: Adobe Illustrator 19.1.0, SVG Export Plug-In . SVG Version: 6.00 Build 0)--><svg version="1.1" xmlns="http://www.w3.org/2000/svg" xmlns:xlink="http://www.w3.org/1999/xlink" x="0px" y="0px" width="24px" height="24px" viewBox="0 0 24 24" enable-background="new 0 0 24 24" xml:space="preserve"><g id="Header_x2F_BG" display="none"><rect x="-182" y="-226" display="inline" fill="#F1F1F2" width="520" height="520"/></g><g id="Bounding_Boxes"><g id="ui_x5F_spec_x5F_header_copy_3" display="none"/></g><g id="Rounded"><g id="ui_x5F_spec_x5F_header_copy_5" display="none"/><path d="M12,3C7.41,3,3.86,4.53,0.89,6.59C0.4,6.92,0.3,7.59,0.67,8.05l9.78,12.04c0.8,0.98,2.3,0.99,3.1,0l9.78-12.02
		c0.37-0.46,0.27-1.13-0.22-1.46C20.14,4.54,16.59,3,12,3z M12,16L12,16c-0.55,0-1-0.45-1-1v-4c0-0.55,0.45-1,1-1h0
		c0.55,0,1,0.45,1,1v4C13,15.55,12.55,16,12,16z M11,8V6h2v2H11z" fill="currentColor"/></g><g id="Sharp" display="none"><g id="ui_x5F_spec_x5F_header_copy_4"/><path display="inline" d="M12,3C6.95,3,3.15,4.85,0,7.23L12,22L24,7.25C20.85,4.87,17.05,3,12,3z M13,16h-2v-6h2V16z M11,8V6h2v2
		H11z" fill="currentColor"/></g><g id="Outline" display="none"><g id="ui_x5F_spec_x5F_header"/><g display="inline"><path d="M12,3C6.95,3,3.15,4.85,0,7.23L12,22L24,7.25C20.85,4.87,17.05,3,12,3z M2.92,7.65C5.8,5.85,8.74,5,12,5
			c3.25,0,6.18,0.85,9.08,2.67L12,18.83L2.92,7.65z" fill="currentColor"/><rect x="11" y="10" width="2" height="6"/><rect x="11" y="6" width="2" height="2"/></g></g><g id="Duotone" display="none"><g id="ui_x5F_spec_x5F_header_copy_2"/><g display="inline"><path opacity="0.3" d="M12,5C8.74,5,5.8,5.85,2.92,7.65L12,18.83l9.08-11.16C18.18,5.85,15.25,5,12,5z M13,16h-2v-6h2V16z M11,8V6
			h2v2H11z" fill="currentColor"/><g><path d="M12,3C6.95,3,3.15,4.85,0,7.23L12,22L24,7.25C20.85,4.87,17.05,3,12,3z M2.92,7.65C5.8,5.85,8.74,5,12,5
				c3.25,0,6.18,0.85,9.08,2.67L12,18.83L2.92,7.65z" fill="currentColor"/><rect x="11" y="10" width="2" height="6"/><rect x="11" y="6" width="2" height="2"/></g></g></g><g id="Material" display="none"><g id="ui_x5F_spec_x5F_header_copy"/><path display="inline" d="M12,3C6.95,3,3.15,4.85,0,7.23L12,22L24,7.25C20.85,4.87,17.05,3,12,3z M13,16h-2v-6h2V16z M11,8V6h2v2
		H11z" fill="currentColor"/></g></svg>