<?xml version="1.0" encoding="utf-8"?><!--Generator: Adobe Illustrator 19.1.0, SVG Export Plug-In . SVG Version: 6.00 Build 0)--><svg version="1.1" xmlns="http://www.w3.org/2000/svg" xmlns:xlink="http://www.w3.org/1999/xlink" x="0px" y="0px" width="24px" height="24px" viewBox="0 0 24 24" enable-background="new 0 0 24 24" xml:space="preserve"><g id="Bounding_Boxes"><g id="ui_x5F_spec_x5F_header_copy_3"/></g><g id="Rounded"><g id="ui_x5F_spec_x5F_header_copy_5"/><path d="M20,13H3c-0.55,0-1,0.45-1,1v6c0,0.55,0.45,1,1,1h17c0.55,0,1-0.45,1-1v-6C21,13.45,20.55,13,20,13z M20,3H3
		C2.45,3,2,3.45,2,4v6c0,0.55,0.45,1,1,1h17c0.55,0,1-0.45,1-1V4C21,3.45,20.55,3,20,3z" fill="currentColor"/></g></svg>