<?xml version="1.0" encoding="utf-8"?><!--Generator: Adobe Illustrator 19.1.0, SVG Export Plug-In . SVG Version: 6.00 Build 0)--><svg version="1.1" xmlns="http://www.w3.org/2000/svg" xmlns:xlink="http://www.w3.org/1999/xlink" x="0px" y="0px" width="24px" height="24px" viewBox="0 0 24 24" enable-background="new 0 0 24 24" xml:space="preserve"><g id="Bounding_Boxes"><g id="ui_x5F_spec_x5F_header_copy_2"/></g><g id="Rounded"><g id="ui_x5F_spec_x5F_header_copy_6"/><g><circle cx="4.5" cy="9.5" r="1.5"/><path d="M22.17,9.17c0-3.91-3.19-7.06-7.11-7c-3.83,0.06-6.99,3.37-6.88,7.19c0.09,3.38,2.58,6.16,5.83,6.7V20H6v-3h0.5
			C6.78,17,7,16.78,7,16.5V13c0-0.55-0.45-1-1-1H3c-0.55,0-1,0.45-1,1v3.5C2,16.78,2.22,17,2.5,17H3v4c0,0.55,0.45,1,1,1h14
			c0.55,0,1-0.45,1-1c0-0.55-0.45-1-1-1h-2v-3.88C19.47,15.71,22.17,12.76,22.17,9.17z" fill="currentColor"/></g></g></svg>