<?xml version="1.0" encoding="utf-8"?><!--Generator: Adobe Illustrator 19.1.0, SVG Export Plug-In . SVG Version: 6.00 Build 0)--><svg version="1.1" xmlns="http://www.w3.org/2000/svg" xmlns:xlink="http://www.w3.org/1999/xlink" x="0px" y="0px" width="24px" height="24px" viewBox="0 0 24 24" enable-background="new 0 0 24 24" xml:space="preserve"><g id="Bounding_Boxes"><g id="ui_x5F_spec_x5F_header_copy_3"/></g><g id="Rounded"><g id="ui_x5F_spec_x5F_header_copy_5"/><g><path d="M10.06,5H5.82l0.66-3.18c0.08-0.37-0.04-0.75-0.3-1.02l0,0c-0.44-0.44-1.15-0.44-1.58,0l-4,4C0.21,5.17,0,5.68,0,6.21V12
			c0,1.1,0.9,2,2,2h5.92c0.8,0,1.52-0.48,1.84-1.21l2.14-5C12.46,6.47,11.49,5,10.06,5z" fill="currentColor"/><path d="M22,10h-5.92c-0.8,0-1.52,0.48-1.84,1.21l-2.14,5c-0.56,1.32,0.4,2.79,1.84,2.79h4.24l-0.66,3.18
			c-0.08,0.37,0.04,0.75,0.3,1.02l0,0c0.44,0.44,1.15,0.44,1.58,0l4-4c0.38-0.38,0.59-0.88,0.59-1.41V12C24,10.9,23.1,10,22,10z" fill="currentColor"/></g></g></svg>