<?xml version="1.0" encoding="utf-8"?><!--Generator: Adobe Illustrator 19.1.0, SVG Export Plug-In . SVG Version: 6.00 Build 0)--><svg version="1.1" xmlns="http://www.w3.org/2000/svg" xmlns:xlink="http://www.w3.org/1999/xlink" x="0px" y="0px" width="24px" height="24px" viewBox="0 0 24 24" enable-background="new 0 0 24 24" xml:space="preserve"><g id="Bounding_Boxes"><g id="ui_x5F_spec_x5F_header_copy_2"/></g><g id="Rounded"><g><path d="M7,10H5V8c0-0.55-0.45-1-1-1h0C3.45,7,3,7.45,3,8v2H1c-0.55,0-1,0.45-1,1v0c0,0.55,0.45,1,1,1h2v2c0,0.55,0.45,1,1,1h0
			c0.55,0,1-0.45,1-1v-2h2c0.55,0,1-0.45,1-1v0C8,10.45,7.55,10,7,10z" fill="currentColor"/><path d="M18,11c1.66,0,2.99-1.34,2.99-3c0-1.66-1.33-3-2.99-3c-0.32,0-0.63,0.05-0.91,0.14c0.57,0.81,0.9,1.79,0.9,2.86
			s-0.34,2.04-0.9,2.86C17.37,10.95,17.68,11,18,11z" fill="currentColor"/><path d="M13,11c1.66,0,2.99-1.34,2.99-3c0-1.66-1.33-3-2.99-3s-3,1.34-3,3C10,9.66,11.34,11,13,11z" fill="currentColor"/><path d="M13,13c-2,0-6,1-6,3v1c0,0.55,0.45,1,1,1h10c0.55,0,1-0.45,1-1v-1C19,14,15,13,13,13z" fill="currentColor"/><path d="M19.62,13.16C20.45,13.89,21,14.82,21,16v1.5c0,0.17-0.02,0.34-0.05,0.5h2.55c0.28,0,0.5-0.22,0.5-0.5V16
			C24,14.46,21.63,13.51,19.62,13.16z" fill="currentColor"/></g></g></svg>