<?xml version="1.0" encoding="utf-8"?><!--Generator: Adobe Illustrator 19.1.0, SVG Export Plug-In . SVG Version: 6.00 Build 0)--><svg version="1.1" xmlns="http://www.w3.org/2000/svg" xmlns:xlink="http://www.w3.org/1999/xlink" x="0px" y="0px" width="24px" height="24px" viewBox="0 0 24 24" enable-background="new 0 0 24 24" xml:space="preserve"><g id="Bounding_Boxes"><g id="ui_x5F_spec_x5F_header_copy_3"/></g><g id="Rounded"><g id="ui_x5F_spec_x5F_header_copy_5"/><path d="M6,5H3C2.45,5,2,5.45,2,6v12c0,0.55,0.45,1,1,1h3c0.55,0,1-0.45,1-1V6C7,5.45,6.55,5,6,5z M20,5h-3c-0.55,0-1,0.45-1,1v12
		c0,0.55,0.45,1,1,1h3c0.55,0,1-0.45,1-1V6C21,5.45,20.55,5,20,5z M13,5h-3C9.45,5,9,5.45,9,6v12c0,0.55,0.45,1,1,1h3
		c0.55,0,1-0.45,1-1V6C14,5.45,13.55,5,13,5z" fill="currentColor"/></g></svg>