<?xml version="1.0" encoding="utf-8"?><!--Generator: Adobe Illustrator 19.1.0, SVG Export Plug-In . SVG Version: 6.00 Build 0)--><svg version="1.1" xmlns="http://www.w3.org/2000/svg" xmlns:xlink="http://www.w3.org/1999/xlink" x="0px" y="0px" width="24px" height="24px" viewBox="0 0 24 24" enable-background="new 0 0 24 24" xml:space="preserve"><g id="Bounding_Boxes"><g id="ui_x5F_spec_x5F_header_copy_2"/></g><g id="Rounded_1_"><path d="M16.01,7L16,4c0-0.55-0.45-1-1-1h0c-0.55,0-1,0.45-1,1v3h-4V4c0-0.55-0.45-1-1-1h0C8.45,3,8,3.45,8,4v3H7.99
		C6.9,7,6,7.9,6,8.99v4.66c0,0.53,0.21,1.04,0.58,1.41L9.5,18v2c0,0.55,0.45,1,1,1h3c0.55,0,1-0.45,1-1v-2l2.92-2.92
		C17.79,14.7,18,14.19,18,13.66V8.99C18,7.89,17.11,7,16.01,7L16.01,7z" fill="currentColor"/></g></svg>