<?xml version="1.0" encoding="utf-8"?><!--Generator: Adobe Illustrator 19.1.0, SVG Export Plug-In . SVG Version: 6.00 Build 0)--><svg version="1.1" xmlns="http://www.w3.org/2000/svg" xmlns:xlink="http://www.w3.org/1999/xlink" x="0px" y="0px" width="24px" height="24px" viewBox="0 0 24 24" enable-background="new 0 0 24 24" xml:space="preserve"><g id="Bounding_Boxes"><g id="ui_x5F_spec_x5F_header_copy_3"/></g><g id="Rounded"><g id="ui_x5F_spec_x5F_header_copy_7"/><path d="M2,17L2,17c0,0.55,0.45,1,1,1h18c0.55,0,1-0.45,1-1v0c0-0.55-0.45-1-1-1H3C2.45,16,2,16.45,2,17z M2,12L2,12
		c0,0.55,0.45,1,1,1h18c0.55,0,1-0.45,1-1v0c0-0.55-0.45-1-1-1H3C2.45,11,2,11.45,2,12z M2,7L2,7c0,0.55,0.45,1,1,1h18
		c0.55,0,1-0.45,1-1v0c0-0.55-0.45-1-1-1H3C2.45,6,2,6.45,2,7z" fill="currentColor"/></g></svg>