<?xml version="1.0" encoding="utf-8"?><!--Generator: Adobe Illustrator 19.1.0, SVG Export Plug-In . SVG Version: 6.00 Build 0)--><svg version="1.1" xmlns="http://www.w3.org/2000/svg" xmlns:xlink="http://www.w3.org/1999/xlink" x="0px" y="0px" width="24px" height="24px" viewBox="0 0 24 24" enable-background="new 0 0 24 24" xml:space="preserve"><g id="Bounding_Boxes"><g id="ui_x5F_spec_x5F_header_copy_3"/></g><g id="Rounded"><g id="ui_x5F_spec_x5F_header_copy_6"/><path d="M7,5h2V3H7V5z M7,13h2v-2H7V13z M7,21h2v-2H7V21z M11,17h2v-2h-2V17z M11,21h2v-2h-2V21z M3,21h2v-2H3V21z M3,17h2v-2H3V17
		z M3,13h2v-2H3V13z M3,9h2V7H3V9z M3,5h2V3H3V5z M11,13h2v-2h-2V13z M19,17h2v-2h-2V17z M19,13h2v-2h-2V13z M19,21h2v-2h-2V21z
		 M19,9h2V7h-2V9z M11,9h2V7h-2V9z M19,3v2h2V3H19z M11,5h2V3h-2V5z M15,21h2v-2h-2V21z M15,13h2v-2h-2V13z M15,5h2V3h-2V5z" fill="currentColor"/></g></svg>