<?xml version="1.0" encoding="utf-8"?><!--Generator: Adobe Illustrator 19.1.0, SVG Export Plug-In . SVG Version: 6.00 Build 0)--><svg version="1.1" xmlns="http://www.w3.org/2000/svg" xmlns:xlink="http://www.w3.org/1999/xlink" x="0px" y="0px" width="24px" height="24px" viewBox="0 0 24 24" enable-background="new 0 0 24 24" xml:space="preserve"><g id="Bounding_Boxes"><g id="ui_x5F_spec_x5F_header_copy_3"/></g><g id="Rounded"><g id="ui_x5F_spec_x5F_header_copy_7"/><g><path d="M16,9v5h2V8c0-1.1-0.9-2-2-2h-6v2h5C15.55,8,16,8.45,16,9z" fill="currentColor"/><path d="M19,16H9c-0.55,0-1-0.45-1-1V5c0-0.55-0.45-1-1-1S6,4.45,6,5v1H5C4.45,6,4,6.45,4,7c0,0.55,0.45,1,1,1h1v8
			c0,1.1,0.9,2,2,2h8v1c0,0.55,0.45,1,1,1s1-0.45,1-1v-1h1c0.55,0,1-0.45,1-1C20,16.45,19.55,16,19,16z" fill="currentColor"/><path d="M17.66,1.4c-1.67-0.89-3.83-1.51-6.27-1.36l3.81,3.81l1.33-1.33c3.09,1.46,5.34,4.37,5.89,7.86
			c0.06,0.41,0.44,0.69,0.86,0.62c0.41-0.06,0.69-0.45,0.62-0.86C23.3,6.34,20.94,3.14,17.66,1.4z" fill="currentColor"/><path d="M7.47,21.49c-3.09-1.46-5.34-4.37-5.89-7.86c-0.06-0.41-0.44-0.69-0.86-0.62c-0.41,0.06-0.69,0.45-0.62,0.86
			c0.6,3.81,2.96,7.01,6.24,8.75c1.67,0.89,3.83,1.51,6.27,1.36L8.8,20.16L7.47,21.49z" fill="currentColor"/></g></g></svg>