<?xml version="1.0" encoding="utf-8"?><!--Generator: Adobe Illustrator 19.1.0, SVG Export Plug-In . SVG Version: 6.00 Build 0)--><svg version="1.1" xmlns="http://www.w3.org/2000/svg" xmlns:xlink="http://www.w3.org/1999/xlink" x="0px" y="0px" width="24px" height="24px" viewBox="0 0 24 24" enable-background="new 0 0 24 24" xml:space="preserve"><g id="Bounding_Boxes"/><g id="Rounded"><path d="M12,11.55c-1.82-1.7-4.12-2.89-6.68-3.35C4.11,7.99,3,8.95,3,10.18l0,6.24c0,1.68,0.72,2.56,1.71,2.69
		c2.5,0.32,4.77,1.35,6.63,2.87c0.35,0.29,0.92,0.32,1.27,0.04c1.87-1.53,4.16-2.58,6.68-2.9C20.23,18.99,21,18.06,21,17.1
		c0-1.93,0-4.9,0-6.92c0-1.23-1.11-2.19-2.32-1.98C16.12,8.66,13.82,9.85,12,11.55z M12,8c1.66,0,3-1.34,3-3s-1.34-3-3-3S9,3.34,9,5
		S10.34,8,12,8z" fill="currentColor"/></g></svg>