<?xml version="1.0" encoding="utf-8"?><!--Generator: Adobe Illustrator 19.1.0, SVG Export Plug-In . SVG Version: 6.00 Build 0)--><svg version="1.1" xmlns="http://www.w3.org/2000/svg" xmlns:xlink="http://www.w3.org/1999/xlink" x="0px" y="0px" width="24px" height="24px" viewBox="0 0 24 24" enable-background="new 0 0 24 24" xml:space="preserve"><g id="Bounding_Boxes" display="none"><g id="ui_x5F_spec_x5F_header_copy_3" display="inline"/></g><g id="Rounded"><g id="ui_x5F_spec_x5F_header_copy_6"/><path d="M17,2H7C5.9,2,5,2.9,5,4v16c0,1.1,0.9,1.99,2,1.99L17,22c1.1,0,2-0.9,2-2V4C19,2.9,18.1,2,17,2z M12,4c1.1,0,2,0.9,2,2
		s-0.9,2-2,2c-1.11,0-2-0.9-2-2S10.89,4,12,4z M12,20c-2.76,0-5-2.24-5-5s2.24-5,5-5s5,2.24,5,5S14.76,20,12,20z M12,12
		c-1.66,0-3,1.34-3,3s1.34,3,3,3s3-1.34,3-3S13.66,12,12,12z" fill="currentColor"/></g></svg>