<?xml version="1.0" encoding="utf-8"?><!--Generator: Adobe Illustrator 19.1.0, SVG Export Plug-In . SVG Version: 6.00 Build 0)--><svg version="1.1" xmlns="http://www.w3.org/2000/svg" xmlns:xlink="http://www.w3.org/1999/xlink" x="0px" y="0px" width="24px" height="24px" viewBox="0 0 24 24" enable-background="new 0 0 24 24" xml:space="preserve"><g id="Bounding_Boxes"><g id="ui_x5F_spec_x5F_header_copy_3"/></g><g id="Rounded"><g id="ui_x5F_spec_x5F_header_copy_5"/><path d="M3,21h17c0.55,0,1-0.45,1-1v-1c0-0.55-0.45-1-1-1H3c-0.55,0-1,0.45-1,1v1C2,20.55,2.45,21,3,21z M20,8H3C2.45,8,2,8.45,2,9
		v6c0,0.55,0.45,1,1,1h17c0.55,0,1-0.45,1-1V9C21,8.45,20.55,8,20,8z M2,4v1c0,0.55,0.45,1,1,1h17c0.55,0,1-0.45,1-1V4
		c0-0.55-0.45-1-1-1H3C2.45,3,2,3.45,2,4z" fill="currentColor"/></g></svg>