<?xml version="1.0" encoding="utf-8"?><!--Generator: Adobe Illustrator 19.1.0, SVG Export Plug-In . SVG Version: 6.00 Build 0)--><svg version="1.1" xmlns="http://www.w3.org/2000/svg" xmlns:xlink="http://www.w3.org/1999/xlink" x="0px" y="0px" width="24px" height="24px" viewBox="0 0 24 24" enable-background="new 0 0 24 24" xml:space="preserve"><g id="Bounding_Boxes"/><g id="Rounded"><path d="M12,2C8.14,2,5,5.14,5,9c0,4.17,4.42,9.92,6.24,12.11c0.4,0.48,1.13,0.48,1.53,0C14.58,18.92,19,13.17,19,9
		C19,5.14,15.86,2,12,2z M12,4c1.1,0,2,0.9,2,2c0,1.11-0.9,2-2,2s-2-0.89-2-2C10,4.9,10.9,4,12,4z M12,14c-1.67,0-3.14-0.85-4-2.15
		c0.02-1.32,2.67-2.05,4-2.05s3.98,0.73,4,2.05C15.14,13.15,13.67,14,12,14z" fill="currentColor"/></g></svg>