<?xml version="1.0" encoding="utf-8"?><!--Generator: Adobe Illustrator 19.1.0, SVG Export Plug-In . SVG Version: 6.00 Build 0)--><svg version="1.1" xmlns="http://www.w3.org/2000/svg" xmlns:xlink="http://www.w3.org/1999/xlink" x="0px" y="0px" width="24px" height="24px" viewBox="0 0 24 24" enable-background="new 0 0 24 24" xml:space="preserve"><g id="Bounding_Boxes"><g id="ui_x5F_spec_x5F_header_copy_3"/></g><g id="Rounded"><g id="ui_x5F_spec_x5F_header_copy_6"/><path d="M19,1H9C7.9,1,7,1.9,7,3v2c0,0.55,0.45,1,1,1h0c0.55,0,1-0.45,1-1V4h10v16H9v-1c0-0.55-0.45-1-1-1h0c-0.55,0-1,0.45-1,1v2
		c0,1.1,0.9,2,2,2h10c1.1,0,2-0.9,2-2V3C21,1.9,20.1,1,19,1z M7.01,13.47l-1.92-1.92c-0.35-0.35-0.92-0.35-1.27,0l0,0
		c-0.35,0.35-0.35,0.92,0,1.27l2.47,2.47c0.39,0.39,1.02,0.39,1.41,0l5.85-5.85c0.35-0.35,0.35-0.92,0-1.27l0,0
		c-0.35-0.35-0.92-0.35-1.27,0L7.01,13.47z" fill="currentColor"/></g></svg>