<?xml version="1.0" encoding="utf-8"?><!--Generator: Adobe Illustrator 19.1.0, SVG Export Plug-In . SVG Version: 6.00 Build 0)--><svg version="1.1" xmlns="http://www.w3.org/2000/svg" xmlns:xlink="http://www.w3.org/1999/xlink" x="0px" y="0px" width="24px" height="24px" viewBox="0 0 24 24" enable-background="new 0 0 24 24" xml:space="preserve"><g id="Bounding_Boxes" display="none"/><g id="Rounded"><path d="M19,4H5C3.89,4,3,4.9,3,6v12c0,1.1,0.89,2,2,2h14c1.1,0,2-0.9,2-2V6C21,4.9,20.1,4,19,4z M11,10.5c0,0.28-0.22,0.5-0.5,0.5
		H10c-0.28,0-0.5-0.22-0.5-0.5h-2v3h2c0-0.28,0.22-0.5,0.5-0.5h0.5c0.28,0,0.5,0.22,0.5,0.5V14c0,0.55-0.45,1-1,1H7
		c-0.55,0-1-0.45-1-1v-4c0-0.55,0.45-1,1-1h3c0.55,0,1,0.45,1,1V10.5z M18,10.5c0,0.28-0.22,0.5-0.5,0.5H17
		c-0.28,0-0.5-0.22-0.5-0.5h-2v3h2c0-0.28,0.22-0.5,0.5-0.5h0.5c0.28,0,0.5,0.22,0.5,0.5V14c0,0.55-0.45,1-1,1h-3
		c-0.55,0-1-0.45-1-1v-4c0-0.55,0.45-1,1-1h3c0.55,0,1,0.45,1,1V10.5z" fill="currentColor"/></g></svg>