<?xml version="1.0" encoding="utf-8"?><!--Generator: Adobe Illustrator 19.1.0, SVG Export Plug-In . SVG Version: 6.00 Build 0)--><svg version="1.1" xmlns="http://www.w3.org/2000/svg" xmlns:xlink="http://www.w3.org/1999/xlink" x="0px" y="0px" width="24px" height="24px" viewBox="0 0 24 24" enable-background="new 0 0 24 24" xml:space="preserve"><g id="Bounding_Boxes"><g id="ui_x5F_spec_x5F_header_copy_2"/></g><g id="Rounded"><path d="M17.09,4.56c-0.7-1.03-1.5-1.99-2.4-2.85c-0.35-0.34-0.94-0.02-0.84,0.46c0.19,0.94,0.39,2.18,0.39,3.29
		c0,2.06-1.35,3.73-3.41,3.73c-1.54,0-2.8-0.93-3.35-2.26c-0.1-0.2-0.14-0.32-0.2-0.54C7.17,5.97,6.62,5.84,6.38,6.21
		C6.2,6.48,6.03,6.75,5.87,7.04C4.68,9.08,4,11.46,4,14c0,4.42,3.58,8,8,8s8-3.58,8-8C20,10.51,18.92,7.27,17.09,4.56z M11.71,19
		c-1.78,0-3.22-1.4-3.22-3.14c0-1.62,1.05-2.76,2.81-3.12c1.47-0.3,2.98-0.93,4.03-1.92c0.28-0.26,0.74-0.14,0.82,0.23
		c0.23,1.02,0.35,2.08,0.35,3.15C16.51,16.85,14.36,19,11.71,19z" fill="currentColor"/></g></svg>