<?xml version="1.0" encoding="utf-8"?><!--Generator: Adobe Illustrator 19.1.0, SVG Export Plug-In . SVG Version: 6.00 Build 0)--><svg version="1.1" xmlns="http://www.w3.org/2000/svg" xmlns:xlink="http://www.w3.org/1999/xlink" x="0px" y="0px" width="24px" height="24px" viewBox="0 0 24 24" enable-background="new 0 0 24 24" xml:space="preserve"><g id="Bounding_Boxes"/><g id="Rounded"><path d="M8,9.75L8,9.75c0,0.41,0.34,0.75,0.75,0.75h1.5v3.75c0,0.41,0.34,0.75,0.75,0.75h0c0.41,0,0.75-0.34,0.75-0.75V10.5h1.5
		c0.41,0,0.75-0.34,0.75-0.75v0C14,9.34,13.66,9,13.25,9h-4.5C8.34,9,8,9.34,8,9.75z M6,9H3c-0.55,0-1,0.45-1,1v4.25
		C2,14.66,2.34,15,2.75,15h0c0.41,0,0.75-0.34,0.75-0.75V13.5h2v0.75C5.5,14.66,5.84,15,6.25,15h0C6.66,15,7,14.66,7,14.25V10
		C7,9.45,6.55,9,6,9z M5.5,12h-2v-1.5h2V12z M21,9h-4.5c-0.55,0-1,0.45-1,1v4.25c0,0.41,0.34,0.75,0.75,0.75l0,0
		c0.41,0,0.75-0.34,0.75-0.75V10.5h1v2.75c0,0.41,0.34,0.75,0.75,0.75l0,0c0.41,0,0.75-0.34,0.75-0.75v-2.76h1v3.76
		c0,0.41,0.34,0.75,0.75,0.75l0,0c0.41,0,0.75-0.34,0.75-0.75V10C22,9.45,21.55,9,21,9z" fill="currentColor"/></g></svg>