<?xml version="1.0" encoding="utf-8"?><!--Generator: Adobe Illustrator 19.1.0, SVG Export Plug-In . SVG Version: 6.00 Build 0)--><svg version="1.1" xmlns="http://www.w3.org/2000/svg" xmlns:xlink="http://www.w3.org/1999/xlink" x="0px" y="0px" width="24px" height="24px" viewBox="0 0 24 24" enable-background="new 0 0 24 24" xml:space="preserve"><g id="Bounding_Boxes"><g id="ui_x5F_spec_x5F_header_copy_3"/></g><g id="Rounded"><g id="ui_x5F_spec_x5F_header_copy_6"/><path d="M16.5,4H7.56C6.7,4,6,4.7,6,5.56v0C6,5.84,6.12,6.11,6.32,6.3L12.5,12l-6.18,5.7C6.12,17.89,6,18.16,6,18.44v0
		C6,19.3,6.7,20,7.56,20h8.94c0.83,0,1.5-0.67,1.5-1.5v0c0-0.83-0.67-1.5-1.5-1.5H11l3.59-3.59c0.78-0.78,0.78-2.05,0-2.83L11,7h5.5
		C17.33,7,18,6.33,18,5.5v0C18,4.67,17.33,4,16.5,4z" fill="currentColor"/></g></svg>