<?xml version="1.0" encoding="utf-8"?><!--Generator: Adobe Illustrator 19.1.0, SVG Export Plug-In . SVG Version: 6.00 Build 0)--><svg version="1.1" xmlns="http://www.w3.org/2000/svg" xmlns:xlink="http://www.w3.org/1999/xlink" x="0px" y="0px" width="24px" height="24px" viewBox="0 0 24 24" enable-background="new 0 0 24 24" xml:space="preserve"><g id="Bounding_Boxes"><g id="ui_x5F_spec_x5F_header_copy_2"/></g><g id="Rounded"><g id="ui_x5F_spec_x5F_header_copy_6"/><path d="M21,6H3C1.9,6,1,6.9,1,8v8c0,1.1,0.9,2,2,2h18c1.1,0,2-0.9,2-2V8C23,6.9,22.1,6,21,6z M20,16H4c-0.55,0-1-0.45-1-1V9
		c0-0.55,0.45-1,1-1h1v3c0,0.55,0.45,1,1,1h0c0.55,0,1-0.45,1-1V8h2v3c0,0.55,0.45,1,1,1h0c0.55,0,1-0.45,1-1V8h2v3
		c0,0.55,0.45,1,1,1h0c0.55,0,1-0.45,1-1V8h2v3c0,0.55,0.45,1,1,1h0c0.55,0,1-0.45,1-1V8h1c0.55,0,1,0.45,1,1v6
		C21,15.55,20.55,16,20,16z" fill="currentColor"/></g></svg>