<?xml version="1.0" encoding="utf-8"?><!--Generator: Adobe Illustrator 19.1.0, SVG Export Plug-In . SVG Version: 6.00 Build 0)--><svg version="1.1" xmlns="http://www.w3.org/2000/svg" xmlns:xlink="http://www.w3.org/1999/xlink" x="0px" y="0px" width="24px" height="24px" viewBox="0 0 24 24" enable-background="new 0 0 24 24" xml:space="preserve"><g id="Bounding_Boxes"><g id="ui_x5F_spec_x5F_header_copy_3" display="none"/></g><g id="Rounded_1_"><g id="ui_x5F_spec_x5F_header_copy_6" display="none"/><path d="M20,7h-4V5c0-0.55-0.22-1.05-0.59-1.41C15.05,3.22,14.55,3,14,3h-4C8.9,3,8,3.9,8,5v2H4C2.9,7,2,7.9,2,9v11
		c0,1.1,0.9,2,2,2h16c1.1,0,2-0.9,2-2V9C22,7.9,21.1,7,20,7z M10,5h4v2h-4V5z M10.5,18L10.5,18c-0.28-0.28-0.28-0.72,0-1l2.5-2.5
		L10.5,12c-0.28-0.28-0.28-0.72,0-1l0,0c0.28-0.28,0.72-0.28,1,0l3.15,3.15c0.2,0.2,0.2,0.51,0,0.71L11.5,18
		C11.22,18.28,10.78,18.28,10.5,18z" fill="currentColor"/></g></svg>