<?xml version="1.0" encoding="utf-8"?><!--Generator: Adobe Illustrator 19.1.0, SVG Export Plug-In . SVG Version: 6.00 Build 0)--><svg version="1.1" xmlns="http://www.w3.org/2000/svg" xmlns:xlink="http://www.w3.org/1999/xlink" x="0px" y="0px" width="24px" height="24px" viewBox="0 0 24 24" enable-background="new 0 0 24 24" xml:space="preserve"><g id="Bounding_Boxes"><g id="ui_x5F_spec_x5F_header_copy_3"/></g><g id="Rounded"><g id="ui_x5F_spec_x5F_header_copy_6"/><g><path d="M18,14c0-3.09-3.6-7.88-5.23-9.87c-0.4-0.49-1.15-0.49-1.55,0c-0.46,0.57-1.08,1.36-1.73,2.27l8.44,8.44
			C17.97,14.56,18,14.28,18,14z" fill="currentColor"/><path d="M19.29,19.01L6.12,5.84c-0.39-0.39-1.02-0.39-1.41,0c-0.39,0.39-0.39,1.02,0,1.41l2.61,2.61C6.55,11.33,6,12.79,6,14
			c0,3.31,2.69,6,6,6c1.52,0,2.9-0.57,3.95-1.5l1.92,1.92c0.39,0.39,1.02,0.39,1.41,0C19.68,20.04,19.68,19.4,19.29,19.01z" fill="currentColor"/></g></g></svg>