<?xml version="1.0" encoding="utf-8"?><!--Generator: Adobe Illustrator 19.1.0, SVG Export Plug-In . SVG Version: 6.00 Build 0)--><svg version="1.1" xmlns="http://www.w3.org/2000/svg" xmlns:xlink="http://www.w3.org/1999/xlink" x="0px" y="0px" width="24px" height="24px" viewBox="0 0 24 24" enable-background="new 0 0 24 24" xml:space="preserve"><g id="Bounding_Boxes"><g id="ui_x5F_spec_x5F_header_copy_3"/></g><g id="Rounded"><g id="ui_x5F_spec_x5F_header_copy_6"/><path d="M9.21,19H11v3c0,0.55,0.45,1,1,1h0c0.55,0,1-0.45,1-1v-3h1.79c0.45,0,0.67-0.54,0.35-0.85l-2.79-2.79
		c-0.2-0.2-0.51-0.2-0.71,0l-2.79,2.79C8.54,18.46,8.76,19,9.21,19z M14.79,5H13V2c0-0.55-0.45-1-1-1h0c-0.55,0-1,0.45-1,1v3H9.21
		C8.76,5,8.54,5.54,8.85,5.85l2.79,2.79c0.2,0.2,0.51,0.2,0.71,0l2.79-2.79C15.46,5.54,15.24,5,14.79,5z M4,12L4,12
		c0,0.55,0.45,1,1,1h14c0.55,0,1-0.45,1-1v0c0-0.55-0.45-1-1-1H5C4.45,11,4,11.45,4,12z" fill="currentColor"/></g></svg>