<?xml version="1.0" encoding="utf-8"?><!--Generator: Adobe Illustrator 19.1.0, SVG Export Plug-In . SVG Version: 6.00 Build 0)--><svg version="1.1" xmlns="http://www.w3.org/2000/svg" xmlns:xlink="http://www.w3.org/1999/xlink" x="0px" y="0px" width="24px" height="24px" viewBox="0 0 24 24" enable-background="new 0 0 24 24" xml:space="preserve"><g id="Bounding_Boxes" display="none"/><g id="Rounded"><path d="M21,3H3C1.9,3,1,3.9,1,5v14c0,1.1,0.9,2,2,2h18c1.1,0,2-0.9,2-2V5C23,3.9,22.1,3,21,3z M11,11H4c-0.55,0-1-0.45-1-1v0
		c0-0.55,0.45-1,1-1h7c0.55,0,1,0.45,1,1v0C12,10.55,11.55,11,11,11z M11,7H4C3.45,7,3,6.55,3,6v0c0-0.55,0.45-1,1-1h7
		c0.55,0,1,0.45,1,1v0C12,6.55,11.55,7,11,7z" fill="currentColor"/></g></svg>