<?xml version="1.0" encoding="utf-8"?><!--Generator: Adobe Illustrator 19.1.0, SVG Export Plug-In . SVG Version: 6.00 Build 0)--><svg version="1.1" xmlns="http://www.w3.org/2000/svg" xmlns:xlink="http://www.w3.org/1999/xlink" x="0px" y="0px" width="24px" height="24px" viewBox="0 0 24 24" enable-background="new 0 0 24 24" xml:space="preserve"><g id="Bounding_Boxes" display="none"><g id="ui_x5F_spec_x5F_header_copy_3" display="inline"/></g><g id="Rounded"><g id="ui_x5F_spec_x5F_header_copy_6"/><path d="M12.29,8.12L15.17,11H2c-0.55,0-1,0.45-1,1v0c0,0.55,0.45,1,1,1h13.17l-2.88,2.88c-0.39,0.39-0.39,1.02,0,1.41l0,0
		c0.39,0.39,1.02,0.39,1.41,0l4.59-4.59c0.39-0.39,0.39-1.02,0-1.41l-4.59-4.59c-0.39-0.39-1.02-0.39-1.41,0l0,0
		C11.91,7.09,11.9,7.73,12.29,8.12z M20,7v10c0,0.55,0.45,1,1,1h0c0.55,0,1-0.45,1-1V7c0-0.55-0.45-1-1-1h0C20.45,6,20,6.45,20,7z" fill="currentColor"/></g></svg>