<?xml version="1.0" encoding="utf-8"?><!--Generator: Adobe Illustrator 19.1.0, SVG Export Plug-In . SVG Version: 6.00 Build 0)--><svg version="1.1" xmlns="http://www.w3.org/2000/svg" xmlns:xlink="http://www.w3.org/1999/xlink" x="0px" y="0px" width="24px" height="24px" viewBox="0 0 24 24" enable-background="new 0 0 24 24" xml:space="preserve"><g id="Bounding_Boxes"><g id="ui_x5F_spec_x5F_header_copy_3"/></g><g id="Rounded"><g id="ui_x5F_spec_x5F_header_copy_6"/><path d="M12,19L12,19c1.1,0,2-0.9,2-2v-1h-4v1C10,18.1,10.9,19,12,19z M5,5.5L5,5.5C5,6.33,5.67,7,6.5,7H10v3h4V7h3.5
		C18.33,7,19,6.33,19,5.5v0C19,4.67,18.33,4,17.5,4h-11C5.67,4,5,4.67,5,5.5z M4,14h16c0.55,0,1-0.45,1-1v0c0-0.55-0.45-1-1-1H4
		c-0.55,0-1,0.45-1,1v0C3,13.55,3.45,14,4,14z" fill="currentColor"/></g></svg>