<?xml version="1.0" encoding="utf-8"?><!--Generator: Adobe Illustrator 19.1.0, SVG Export Plug-In . SVG Version: 6.00 Build 0)--><svg version="1.1" xmlns="http://www.w3.org/2000/svg" xmlns:xlink="http://www.w3.org/1999/xlink" x="0px" y="0px" width="24px" height="24px" viewBox="0 0 24 24" enable-background="new 0 0 24 24" xml:space="preserve"><g id="Bounding_Boxes"><g id="ui_x5F_spec_x5F_header_copy_3"/></g><g id="Rounded"><g id="ui_x5F_spec_x5F_header_copy_6"/><path d="M10,10v4c0,0.55,0.45,1,1,1h0c0.55,0,1-0.45,1-1V4h2v10c0,0.55,0.45,1,1,1h0c0.55,0,1-0.45,1-1V4h1c0.55,0,1-0.45,1-1v0
		c0-0.55-0.45-1-1-1l-6.83,0C8.08,2,6.22,3.53,6.02,5.61C5.79,7.99,7.66,10,10,10z M8,17v-1.79c0-0.45-0.54-0.67-0.85-0.35
		l-2.79,2.79c-0.2,0.2-0.2,0.51,0,0.71l2.79,2.79C7.46,21.46,8,21.24,8,20.79V19h11c0.55,0,1-0.45,1-1v0c0-0.55-0.45-1-1-1H8z" fill="currentColor"/></g></svg>