<?xml version="1.0" encoding="utf-8"?><!--Generator: Adobe Illustrator 19.1.0, SVG Export Plug-In . SVG Version: 6.00 Build 0)--><svg version="1.1" xmlns="http://www.w3.org/2000/svg" xmlns:xlink="http://www.w3.org/1999/xlink" x="0px" y="0px" width="24px" height="24px" viewBox="0 0 24 24" enable-background="new 0 0 24 24" xml:space="preserve"><g id="Bounding_Boxes"><g id="ui_x5F_spec_x5F_header_copy_2"/></g><g id="Rounded"><g id="ui_x5F_spec_x5F_header_copy_6"/><g><path d="M14,9.61V7h2c1.1,0,2-0.9,2-2c0-1.1-0.9-2-2-2h-3c-0.55,0-1,0.45-1,1v3.61L14,9.61z" fill="currentColor"/><path d="M5.12,3.56c-0.39-0.39-1.02-0.39-1.41,0c-0.39,0.39-0.39,1.02,0,1.41L12,13.27v0.28c-0.94-0.54-2.1-0.75-3.33-0.32
			C7.33,13.71,6.3,14.9,6.06,16.3c-0.46,2.74,1.86,5.08,4.59,4.65c1.96-0.31,3.35-2.11,3.35-4.1v-1.58l5.02,5.02
			c0.39,0.39,1.02,0.39,1.41,0v0c0.39-0.39,0.39-1.02,0-1.41L5.12,3.56z" fill="currentColor"/></g></g></svg>