<?xml version="1.0" encoding="utf-8"?><!--Generator: Adobe Illustrator 19.1.0, SVG Export Plug-In . SVG Version: 6.00 Build 0)--><svg version="1.1" xmlns="http://www.w3.org/2000/svg" xmlns:xlink="http://www.w3.org/1999/xlink" x="0px" y="0px" width="24px" height="24px" viewBox="0 0 24 24" enable-background="new 0 0 24 24" xml:space="preserve"><g id="Header_x2F_BG" display="none"><rect x="-50" y="-182" display="inline" fill="#F1F1F2" width="520" height="520"/></g><g id="Bounding_Boxes"><g id="ui_x5F_spec_x5F_header_copy_3" display="none"/></g><g id="Rounded"><g id="ui_x5F_spec_x5F_header_copy_5" display="none"/><path d="M19,4H5C3.89,4,3,4.9,3,6v12c0,1.1,0.9,2,2,2h3c0.55,0,1-0.45,1-1v0c0-0.55-0.45-1-1-1H5V8h14v10h-3c-0.55,0-1,0.45-1,1v0
		c0,0.55,0.45,1,1,1h3c1.1,0,2-0.9,2-2V6C21,4.9,20.11,4,19,4z M11.65,10.35l-2.79,2.79C8.54,13.46,8.76,14,9.21,14H11v5
		c0,0.55,0.45,1,1,1h0c0.55,0,1-0.45,1-1v-5h1.79c0.45,0,0.67-0.54,0.35-0.85l-2.79-2.79C12.16,10.16,11.84,10.16,11.65,10.35z" fill="currentColor"/></g><g id="Sharp" display="none"><g id="ui_x5F_spec_x5F_header_copy_4"/><path display="inline" d="M3,4v16h6v-2H5V8h14v10h-4v2h6V4H3z M12,10l-4,4h3v6h2v-6h3L12,10z" fill="currentColor"/></g><g id="Outline" display="none"><g id="ui_x5F_spec_x5F_header"/><path display="inline" d="M19,4H5C3.89,4,3,4.9,3,6v12c0,1.1,0.89,2,2,2h4v-2H5V8h14v10h-4v2h4c1.1,0,2-0.9,2-2V6
		C21,4.9,20.11,4,19,4z M12,10l-4,4h3v6h2v-6h3L12,10z" fill="currentColor"/></g><g id="Duotone" display="none"><g id="ui_x5F_spec_x5F_header_copy_2"/><path display="inline" d="M19,4H5C3.89,4,3,4.9,3,6v12c0,1.1,0.89,2,2,2h4v-2H5V8h14v10h-4v2h4c1.1,0,2-0.9,2-2V6
		C21,4.9,20.11,4,19,4z M12,10l-4,4h3v6h2v-6h3L12,10z" fill="currentColor"/></g><g id="Material" display="none"><g id="ui_x5F_spec_x5F_header_copy"/><path display="inline" d="M19,4H5C3.89,4,3,4.9,3,6v12c0,1.1,0.89,2,2,2h4v-2H5V8h14v10h-4v2h4c1.1,0,2-0.9,2-2V6
		C21,4.9,20.11,4,19,4z M12,10l-4,4h3v6h2v-6h3L12,10z" fill="currentColor"/></g></svg>