<?xml version="1.0" encoding="utf-8"?><!--Generator: Adobe Illustrator 19.1.0, SVG Export Plug-In . SVG Version: 6.00 Build 0)--><svg version="1.1" xmlns="http://www.w3.org/2000/svg" xmlns:xlink="http://www.w3.org/1999/xlink" x="0px" y="0px" width="24px" height="24px" viewBox="0 0 24 24" enable-background="new 0 0 24 24" xml:space="preserve"><g id="Bounding_Boxes"><g id="ui_x5F_spec_x5F_header_copy_3"/></g><g id="Sharp"><g id="ui_x5F_spec_x5F_header_copy_4"/><path d="M22,5H2.01L2,19h20V5z M11,8h2v2h-2V8z M11,11h2v2h-2V11z M8,8h2v2H8V8z M8,11h2v2H8V11z M7,13H5v-2h2V13z M7,10H5V8h2V10z
		 M16,17H8v-2h8V17z M16,13h-2v-2h2V13z M16,10h-2V8h2V10z M19,13h-2v-2h2V13z M19,10h-2V8h2V10z" fill="currentColor"/></g></svg>