<?xml version="1.0" encoding="utf-8"?><!--Generator: Adobe Illustrator 19.1.0, SVG Export Plug-In . SVG Version: 6.00 Build 0)--><svg version="1.1" xmlns="http://www.w3.org/2000/svg" xmlns:xlink="http://www.w3.org/1999/xlink" x="0px" y="0px" width="24px" height="24px" viewBox="0 0 24 24" enable-background="new 0 0 24 24" xml:space="preserve"><g id="Bounding_Boxes"><g id="ui_x5F_spec_x5F_header_copy_3"/></g><g id="Sharp"><g id="ui_x5F_spec_x5F_header_copy_4"/><g><g><path d="M16.76,5.36l-1.68,1.69c0.8,1.13,0.83,2.58,0.09,3.74l1.7,1.7C18.77,10.47,18.74,7.51,16.76,5.36z" fill="currentColor"/><path d="M20.07,2l-1.63,1.63c2.72,2.97,2.76,7.39,0.14,10.56l1.64,1.64C23.96,11.94,23.93,5.99,20.07,2z" fill="currentColor"/><path d="M9.43,5.04l3.53,3.53C12.76,6.71,11.29,5.24,9.43,5.04z" fill="currentColor"/><path d="M4.41,2.86L3,4.27l2.62,2.62C5.23,7.5,5,8.22,5,9c0,2.21,1.79,4,4,4c0.78,0,1.5-0.23,2.11-0.62l4.4,4.4
				C13.74,15.6,10.78,15,9,15c-2.67,0-8,1.34-8,4v2h16v-2c0-0.37-0.11-0.7-0.29-1.02L19.73,21l1.41-1.41L4.41,2.86z" fill="currentColor"/></g></g></g></svg>