<?xml version="1.0" encoding="utf-8"?><!--Generator: Adobe Illustrator 19.1.0, SVG Export Plug-In . SVG Version: 6.00 Build 0)--><svg version="1.1" xmlns="http://www.w3.org/2000/svg" xmlns:xlink="http://www.w3.org/1999/xlink" x="0px" y="0px" width="24px" height="24px" viewBox="0 0 24 24" enable-background="new 0 0 24 24" xml:space="preserve"><g id="Bounding_Boxes"><g id="ui_x5F_spec_x5F_header_copy_2"/></g><g id="Sharp"><g id="ui_x5F_spec_x5F_header_copy_4"/><path d="M13,7h-2v4H7v2h4v4h2v-4h4v-2h-4V7z M12.73,2.03C6.65,1.59,1.59,6.65,2.03,12.73c0.38,5.28,5,9.27,10.29,9.27L22,22
		c0,0,0-5.42,0-9.68C22,7.02,18.02,2.41,12.73,2.03z M12,20c-4.41,0-8-3.59-8-8s3.59-8,8-8s8,3.59,8,8S16.41,20,12,20z" fill="currentColor"/></g></svg>