<?xml version="1.0" encoding="utf-8"?><!--Generator: Adobe Illustrator 19.1.0, SVG Export Plug-In . SVG Version: 6.00 Build 0)--><svg version="1.1" xmlns="http://www.w3.org/2000/svg" xmlns:xlink="http://www.w3.org/1999/xlink" x="0px" y="0px" width="24px" height="24px" viewBox="0 0 24 24" enable-background="new 0 0 24 24" xml:space="preserve"><g id="Bounding_Boxes"><g id="ui_x5F_spec_x5F_header_copy_2"/><rect fill="none" width="24" height="24"/></g><g id="Sharp"><g id="ui_x5F_spec_x5F_header_copy_4"/><g><polygon points="9.65,7 18,7 18,3.01 6,3.01 6,3.36 		"/><path d="M10.66,8.01l9,8.99H22v-5.99c0-1.66-1.34-3-3-3H10.66z M19,10c0.55,0,1,0.45,1,1s-0.45,1-1,1s-1-0.45-1-1S18.45,10,19,10z
			" fill="currentColor"/><path d="M1.41,1.6L0,3.01l5,5c-1.66,0-3,1.33-3,2.99v6h4v4h12l2.95,2.96l1.41-1.41L1.41,1.6z M8,19.01V15h4l4,4L8,19.01z" fill="currentColor"/></g></g></svg>