<?xml version="1.0" encoding="utf-8"?><!--Generator: Adobe Illustrator 19.1.0, SVG Export Plug-In . SVG Version: 6.00 Build 0)--><svg version="1.1" xmlns="http://www.w3.org/2000/svg" xmlns:xlink="http://www.w3.org/1999/xlink" x="0px" y="0px" width="24px" height="24px" viewBox="0 0 24 24" enable-background="new 0 0 24 24" xml:space="preserve"><g id="Bounding_Boxes"><g id="ui_x5F_spec_x5F_header_copy_2"/></g><g id="Sharp"><g id="ui_x5F_spec_x5F_header_copy_4"/><path d="M22.17,9.17c0-3.91-3.19-7.06-7.11-7c-3.83,0.06-6.99,3.37-6.88,7.19c0.09,3.38,2.58,6.16,5.83,6.7V20H6v-3h1v-5H2v5h1v5
		h16v-2h-3v-3.88C19.47,15.71,22.17,12.76,22.17,9.17z M4.5,11C5.33,11,6,10.33,6,9.5S5.33,8,4.5,8S3,8.67,3,9.5S3.67,11,4.5,11z" fill="currentColor"/></g></svg>