<?xml version="1.0" encoding="utf-8"?><!--Generator: Adobe Illustrator 19.1.0, SVG Export Plug-In . SVG Version: 6.00 Build 0)--><svg version="1.1" xmlns="http://www.w3.org/2000/svg" xmlns:xlink="http://www.w3.org/1999/xlink" x="0px" y="0px" width="24px" height="24px" viewBox="0 0 24 24" enable-background="new 0 0 24 24" xml:space="preserve"><g id="Bounding_Boxes"><g id="ui_x5F_spec_x5F_header_copy_3" display="none"/></g><g id="Sharp"><g id="ui_x5F_spec_x5F_header_copy_4" display="none"/><path d="M1.41,1.13L0,2.54l4.39,4.39l2.21,4.66L3.62,17h10.84l1.38,1.38c-0.5,0.36-0.83,0.95-0.83,1.62c0,1.1,0.89,2,1.99,2
		c0.67,0,1.26-0.33,1.62-0.84L21.46,24l1.41-1.41L1.41,1.13z M7,15l1.1-2h2.36l2,2H7z M16.05,12.94h0.73L21.7,4H7.12L16.05,12.94z
		 M7,18c-1.1,0-1.99,0.9-1.99,2c0,1.1,0.89,2,1.99,2c1.1,0,2-0.9,2-2C9,18.9,8.1,18,7,18z" fill="currentColor"/></g></svg>