<?xml version="1.0" encoding="utf-8"?><!--Generator: Adobe Illustrator 19.1.0, SVG Export Plug-In . SVG Version: 6.00 Build 0)--><svg version="1.1" xmlns="http://www.w3.org/2000/svg" xmlns:xlink="http://www.w3.org/1999/xlink" x="0px" y="0px" width="24px" height="24px" viewBox="0 0 24 24" enable-background="new 0 0 24 24" xml:space="preserve"><g id="Bounding_Boxes"><g id="ui_x5F_spec_x5F_header_copy_2"/></g><g id="Sharp"><g><path d="M23.32,16.67c-2.95-2.79-6.93-4.51-11.31-4.51c-4.39,0-8.37,1.72-11.31,4.51c-0.17,0.17-0.69,0.69-0.69,0.69l3.64,3.64
			l3.93-2.72l-0.01-3.49c1.4-0.45,2.9-0.7,4.44-0.7c1.55,0,3.04,0.24,4.44,0.7l-0.01,3.49l3.93,2.72l3.64-3.64
			C24.01,17.35,23.49,16.84,23.32,16.67z" fill="currentColor"/><polygon points="7,6.43 11.94,11.37 19.01,4.3 17.6,2.88 11.94,8.54 8.4,5 11,5 11,3 5,3 5,9 7,9 		"/></g></g></svg>