<?xml version="1.0" encoding="utf-8"?><!--Generator: Adobe Illustrator 19.1.0, SVG Export Plug-In . SVG Version: 6.00 Build 0)--><svg version="1.1" xmlns="http://www.w3.org/2000/svg" xmlns:xlink="http://www.w3.org/1999/xlink" x="0px" y="0px" width="24px" height="24px" viewBox="0 0 24 24" enable-background="new 0 0 24 24" xml:space="preserve"><g id="Bounding_Boxes"><g id="ui_x5F_spec_x5F_header_copy_2"/></g><g id="Sharp"><g id="ui_x5F_spec_x5F_header_copy_4"/><path d="M23,15h-2v2h2V15z M23,19h-2v2h2V19z M23,11h-2v2h2V11z M15,3h-2v2h2V3z M23,7h-2v2h2V7z M1,21h10v-6H1V21z M3,7H1v2h2V7z
		 M15,19h-2v2h2V19z M19,3h-2v2h2V3z M23,3h-2v2h2V3z M19,19h-2v2h2V19z M3,11H1v2h2V11z M11,3H9v2h2V3z M7,3H5v2h2V3z M3,3H1v2h2V3
		z" fill="currentColor"/></g></svg>