<?xml version="1.0" encoding="utf-8"?><!--Generator: Adobe Illustrator 19.1.0, SVG Export Plug-In . SVG Version: 6.00 Build 0)--><svg version="1.1" xmlns="http://www.w3.org/2000/svg" xmlns:xlink="http://www.w3.org/1999/xlink" x="0px" y="0px" width="24px" height="24px" viewBox="0 0 24 24" enable-background="new 0 0 24 24" xml:space="preserve"><g id="Bounding_Boxes"><g id="ui_x5F_spec_x5F_header_copy_3"/></g><g id="Sharp"><g id="ui_x5F_spec_x5F_header_copy_2"/><path d="M10,20H5v2h5v2l3-3l-3-3V20z M14,20v2h5v-2H14z M12,8c1.1,0,2-0.9,2-2s-0.9-2-2-2s-1.99,0.9-1.99,2S10.9,8,12,8z M19,0H5
		v18h14V0z M7,2h10v10.5c0-1.67-3.33-2.5-5-2.5s-5,0.83-5,2.5V2z" fill="currentColor"/></g></svg>