<?xml version="1.0" encoding="utf-8"?><!--Generator: Adobe Illustrator 19.1.0, SVG Export Plug-In . SVG Version: 6.00 Build 0)--><svg version="1.1" xmlns="http://www.w3.org/2000/svg" xmlns:xlink="http://www.w3.org/1999/xlink" x="0px" y="0px" width="24px" height="24px" viewBox="0 0 24 24" enable-background="new 0 0 24 24" xml:space="preserve"><g id="Bounding_Boxes"><g id="ui_x5F_spec_x5F_header_copy_2"/></g><g id="Sharp"><g><path d="M13.21,17.37c-2.83-1.44-5.15-3.75-6.59-6.59l2.53-2.53L8.54,3H3.03C2.45,13.18,10.82,21.55,21,20.97v-5.51l-5.27-0.61
			L13.21,17.37z" fill="currentColor"/><path d="M20,4V3.64c0-1.31-0.94-2.5-2.24-2.63C16.26,0.86,15,2.03,15,3.5V4h-1v6h7V4H20z M19,4h-3V3.5C16,2.67,16.67,2,17.5,2
			S19,2.67,19,3.5V4z" fill="currentColor"/></g></g></svg>