<?xml version="1.0" encoding="utf-8"?><!--Generator: Adobe Illustrator 19.1.0, SVG Export Plug-In . SVG Version: 6.00 Build 0)--><svg version="1.1" xmlns="http://www.w3.org/2000/svg" xmlns:xlink="http://www.w3.org/1999/xlink" x="0px" y="0px" width="24px" height="24px" viewBox="0 0 24 24" enable-background="new 0 0 24 24" xml:space="preserve"><g id="Bounding_Boxes"><g id="ui_x5F_spec_x5F_header_copy_3" display="none"/></g><g id="Sharp"><g id="ui_x5F_spec_x5F_header_copy_4" display="none"/><path d="M11.5,9C10.12,9,9,10.12,9,11.5s1.12,2.5,2.5,2.5s2.5-1.12,2.5-2.5S12.88,9,11.5,9z M22,4H2v16h20V4z M16.79,18.21
		l-2.91-2.91c-0.69,0.44-1.51,0.7-2.39,0.7C9.01,16,7,13.99,7,11.5S9.01,7,11.5,7S16,9.01,16,11.5c0,0.88-0.26,1.69-0.7,2.39
		l2.91,2.9L16.79,18.21z" fill="currentColor"/></g></svg>