<?xml version="1.0" encoding="utf-8"?><!--Generator: Adobe Illustrator 19.1.0, SVG Export Plug-In . SVG Version: 6.00 Build 0)--><svg version="1.1" xmlns="http://www.w3.org/2000/svg" xmlns:xlink="http://www.w3.org/1999/xlink" x="0px" y="0px" width="24px" height="24px" viewBox="0 0 24 24" enable-background="new 0 0 24 24" xml:space="preserve"><g id="Bounding_Boxes"><g id="ui_x5F_spec_x5F_header_copy_2"/></g><g id="Sharp"><g id="ui_x5F_spec_x5F_header_copy_4"/><path d="M18,4l2,3h-3l-2-3h-2l2,3h-3l-2-3H8l2,3H7L5,4H4C2.9,4,2.01,4.9,2.01,6L2,18c0,1.1,0.9,2,2,2h16c1.1,0,2-0.9,2-2V4H18z
		 M11.25,15.25L10,18l-1.25-2.75L6,14l2.75-1.25L10,10l1.25,2.75L14,14L11.25,15.25z M16.94,11.94L16,14l-0.94-2.06L13,11l2.06-0.94
		L16,8l0.94,2.06L19,11L16.94,11.94z" fill="currentColor"/></g></svg>