<?xml version="1.0" encoding="utf-8"?><!--Generator: Adobe Illustrator 19.1.0, SVG Export Plug-In . SVG Version: 6.00 Build 0)--><svg version="1.1" xmlns="http://www.w3.org/2000/svg" xmlns:xlink="http://www.w3.org/1999/xlink" x="0px" y="0px" width="24px" height="24px" viewBox="0 0 24 24" enable-background="new 0 0 24 24" xml:space="preserve"><g id="Bounding_Boxes"/><g id="Sharp"><path d="M13,5L13,5l0.75-1.5H17V2H7v1.5h4.75L11,5C7.87,5.09,5,5.73,5,8.5V17c0,1.5,1.11,2.73,2.55,2.95L6,21.5V22h2l2-2h4l2,2h2
		v-0.5l-1.55-1.55C17.89,19.73,19,18.5,19,17V8.5C19,5.73,16.13,5.09,13,5z M12,18.5c-0.83,0-1.5-0.67-1.5-1.5
		c0-0.83,0.67-1.5,1.5-1.5s1.5,0.67,1.5,1.5C13.5,17.83,12.83,18.5,12,18.5z M17,14H7V9h10V14z" fill="currentColor"/></g></svg>