<?xml version="1.0" encoding="utf-8"?><!--Generator: Adobe Illustrator 19.1.0, SVG Export Plug-In . SVG Version: 6.00 Build 0)--><svg version="1.1" xmlns="http://www.w3.org/2000/svg" xmlns:xlink="http://www.w3.org/1999/xlink" x="0px" y="0px" width="24px" height="24px" viewBox="0 0 24 24" enable-background="new 0 0 24 24" xml:space="preserve"><g id="Bounding_Boxes"><g id="ui_x5F_spec_x5F_header_copy_3"/><g><defs><rect id="SVGID_17_" width="24" height="24"/></defs><clipPath id="SVGID_2_"><use xlink:href="#SVGID_17_" overflow="visible"/></clipPath></g></g><g id="Sharp"><g id="ui_x5F_spec_x5F_header_copy_4"/><path d="M9,11.24V7.5C9,6.12,10.12,5,11.5,5S14,6.12,14,7.5v3.74c1.21-0.81,2-2.18,2-3.74C16,5.01,13.99,3,11.5,3S7,5.01,7,7.5
		C7,9.06,7.79,10.43,9,11.24z M14.08,13.5H13v-6C13,6.67,12.33,6,11.5,6S10,6.67,10,7.5v10.74l-4.04-0.85l-1.21,1.23L10.13,24h8.67
		l1.07-7.62L14.08,13.5z" fill="currentColor"/></g></svg>