<?xml version="1.0" encoding="utf-8"?><!--Generator: Adobe Illustrator 19.1.0, SVG Export Plug-In . SVG Version: 6.00 Build 0)--><svg version="1.1" xmlns="http://www.w3.org/2000/svg" xmlns:xlink="http://www.w3.org/1999/xlink" x="0px" y="0px" width="24px" height="24px" viewBox="0 0 24 24" enable-background="new 0 0 24 24" xml:space="preserve"><g id="Bounding_Boxes"><g id="ui_x5F_spec_x5F_header_copy_3"/><rect fill="none" width="24" height="24"/></g><g id="Duotone"><g id="ui_x5F_spec_x5F_header_copy_5"/><g><rect x="13" y="11" width="2" height="2"/><path d="M19,21c1.1,0,2-0.9,2-2V5c0-1.1-0.9-2-2-2H5C3.9,3,3,3.9,3,5v14c0,1.1,0.9,2,2,2H19z M9,18H7v-2h2V18z M13,18h-2v-2h2V18z
			 M17,18h-2v-2h2V18z M5,13h2v-2H5V5h14v6h-2v2h2v2h-2v-2h-2v2h-2v-2h-2v2H9v-2H7v2H5V13z" fill="currentColor"/><rect x="7" y="9" width="2" height="2"/><rect x="15" y="9" width="2" height="2"/><rect x="11" y="9" width="2" height="2"/><rect x="9" y="11" width="2" height="2"/></g></g></svg>