<?xml version="1.0" encoding="utf-8"?><!--Generator: Adobe Illustrator 19.1.0, SVG Export Plug-In . SVG Version: 6.00 Build 0)--><svg version="1.1" xmlns="http://www.w3.org/2000/svg" xmlns:xlink="http://www.w3.org/1999/xlink" x="0px" y="0px" width="24px" height="24px" viewBox="0 0 24 24" enable-background="new 0 0 24 24" xml:space="preserve"><g id="Bounding_Boxes"/><g id="Duotone"><g id="ui_x5F_spec_x5F_header_copy"/><g><path opacity="0.3" d="M8,16h12V4H8V16z M10,6h8v2h-8V6z M10,9h8v2h-8V9z M10,12h4v2h-4V12z" fill="currentColor"/><path d="M4,22h14v-2H4V6H2v14C2,21.1,2.9,22,4,22z" fill="currentColor"/><path d="M6,4v12c0,1.1,0.9,2,2,2h12c1.1,0,2-0.9,2-2V4c0-1.1-0.9-2-2-2H8C6.9,2,6,2.9,6,4z M20,16H8V4h12V16z" fill="currentColor"/><rect x="10" y="9" width="8" height="2"/><rect x="10" y="12" width="4" height="2"/><rect x="10" y="6" width="8" height="2"/></g></g></svg>