<?xml version="1.0" encoding="utf-8"?><!--Generator: Adobe Illustrator 19.1.0, SVG Export Plug-In . SVG Version: 6.00 Build 0)--><svg version="1.1" xmlns="http://www.w3.org/2000/svg" xmlns:xlink="http://www.w3.org/1999/xlink" x="0px" y="0px" width="24px" height="24px" viewBox="0 0 24 24" enable-background="new 0 0 24 24" xml:space="preserve"><g id="Bounding_Boxes"><g id="ui_x5F_spec_x5F_header_copy_3"/></g><g id="Duotone"><g id="ui_x5F_spec_x5F_header_copy_5"/><g><path opacity="0.3" d="M7,17h14V3H7V17z M12,5h4v10h-2V7h-2V5z" fill="currentColor"/><polygon points="14,15 16,15 16,5 12,5 12,7 14,7 		"/><path d="M21,1H7C5.9,1,5,1.9,5,3v14c0,1.1,0.9,2,2,2h14c1.1,0,2-0.9,2-2V3C23,1.9,22.1,1,21,1z M21,17H7V3h14V17z" fill="currentColor"/><path d="M1,5v16c0,1.1,0.9,2,2,2h16v-2H3V5H1z" fill="currentColor"/></g></g></svg>