<?xml version="1.0" encoding="utf-8"?><!--Generator: Adobe Illustrator 19.1.0, SVG Export Plug-In . SVG Version: 6.00 Build 0)--><svg version="1.1" xmlns="http://www.w3.org/2000/svg" xmlns:xlink="http://www.w3.org/1999/xlink" x="0px" y="0px" width="24px" height="24px" viewBox="0 0 24 24" enable-background="new 0 0 24 24" xml:space="preserve"><g id="Bounding_Boxes"><g id="ui_x5F_spec_x5F_header_copy_2"/></g><g id="Duotone"><g id="ui_x5F_spec_x5F_header_copy_3"/><g><polygon opacity="0.3" points="20,8 12,13 4,8 4,18 20,18 		"/><polygon opacity="0.3" points="20,6 4,6 12,10.99 		"/><path d="M4,20h16c1.1,0,2-0.9,2-2V6c0-1.1-0.9-2-2-2H4C2.9,4,2,4.9,2,6v12C2,19.1,2.9,20,4,20z M20,6l-8,4.99L4,6H20z M4,8l8,5
			l8-5v10L4,18V8z" fill="currentColor"/></g></g></svg>