<?xml version="1.0" encoding="utf-8"?><!--Generator: Adobe Illustrator 19.1.0, SVG Export Plug-In . SVG Version: 6.00 Build 0)--><svg version="1.1" xmlns="http://www.w3.org/2000/svg" xmlns:xlink="http://www.w3.org/1999/xlink" x="0px" y="0px" width="24px" height="24px" viewBox="0 0 24 24" enable-background="new 0 0 24 24" xml:space="preserve"><g id="Bounding_Boxes"/><g id="Duotone"><g id="ui_x5F_spec_x5F_header_copy_2"/><g><path opacity="0.3" d="M3,15h0.78c0.55-0.61,1.34-1,2.22-1s1.67,0.39,2.22,1H15V6H3V15z" fill="currentColor"/><path d="M17,8V4H3C1.9,4,1,4.9,1,6v11h2c0,1.66,1.34,3,3,3c1.66,0,3-1.34,3-3h6c0,1.66,1.34,3,3,3c1.66,0,3-1.34,3-3h2v-5l-3-4H17
			z M6,18c-0.55,0-1-0.45-1-1s0.45-1,1-1s1,0.45,1,1S6.55,18,6,18z M15,15H8.22C7.67,14.39,6.89,14,6,14s-1.67,0.39-2.22,1H3V6h12
			V15z M18,18c-0.55,0-1-0.45-1-1s0.45-1,1-1s1,0.45,1,1S18.55,18,18,18z M17,12V9.5h2.5l1.96,2.5H17z" fill="currentColor"/></g></g></svg>