<?xml version="1.0" encoding="utf-8"?><!--Generator: Adobe Illustrator 19.1.0, SVG Export Plug-In . SVG Version: 6.00 Build 0)--><svg version="1.1" xmlns="http://www.w3.org/2000/svg" xmlns:xlink="http://www.w3.org/1999/xlink" x="0px" y="0px" width="24px" height="24px" viewBox="0 0 24 24" enable-background="new 0 0 24 24" xml:space="preserve"><g id="Bounding_Boxes"/><g id="Duotone"><g id="ui_x5F_spec_x5F_header_copy"/><g><path opacity="0.3" d="M19,12h-1.5v-0.5C17.5,8.46,15.04,6,12,6c-2.52,0-4.63,1.69-5.29,4H6c-2.21,0-4,1.79-4,4c0,2.21,1.79,4,4,4
			h13c1.66,0,3-1.34,3-3C22,13.34,20.66,12,19,12z" fill="currentColor"/><path d="M19.35,10.04C18.67,6.59,15.64,4,12,4C9.11,4,6.6,5.64,5.35,8.04C2.34,8.36,0,10.91,0,14c0,3.31,2.69,6,6,6h13
			c2.76,0,5-2.24,5-5C24,12.36,21.95,10.22,19.35,10.04z M19,18H6c-2.21,0-4-1.79-4-4c0-2.21,1.79-4,4-4h0.71C7.37,7.69,9.48,6,12,6
			c3.04,0,5.5,2.46,5.5,5.5V12H19c1.66,0,3,1.34,3,3C22,16.66,20.66,18,19,18z" fill="currentColor"/></g></g></svg>