<?xml version="1.0" encoding="utf-8"?><!--Generator: Adobe Illustrator 19.1.0, SVG Export Plug-In . SVG Version: 6.00 Build 0)--><svg version="1.1" xmlns="http://www.w3.org/2000/svg" xmlns:xlink="http://www.w3.org/1999/xlink" x="0px" y="0px" width="24px" height="24px" viewBox="0 0 24 24" enable-background="new 0 0 24 24" xml:space="preserve"><g id="Bounding_Boxes"><g id="ui_x5F_spec_x5F_header_copy_3"/></g><g id="Duotone"><g id="ui_x5F_spec_x5F_header_copy_2"/><g><path opacity="0.3" d="M14.72,4.48L14.31,2H9.7L9.29,4.47C10.13,4.17,11.05,4,12,4C12.96,4,13.87,4.17,14.72,4.48z" fill="currentColor"/><path opacity="0.3" d="M9.29,19.53L9.7,22h4.61l0.41-2.48C13.87,19.83,12.96,20,12,20C11.05,20,10.13,19.83,9.29,19.53z" fill="currentColor"/><path d="M16.96,5.73L16,0H8L7.05,5.73C5.19,7.19,4,9.45,4,12s1.19,4.81,3.05,6.27L8,24h8l0.96-5.73C18.81,16.81,20,14.54,20,12
			S18.81,7.19,16.96,5.73z M9.7,2h4.61l0.41,2.48C13.87,4.17,12.96,4,12,4c-0.95,0-1.87,0.17-2.71,0.47L9.7,2z M14.31,22H9.7
			l-0.41-2.47C10.13,19.83,11.05,20,12,20c0.96,0,1.87-0.17,2.72-0.48L14.31,22z M12,18c-3.31,0-6-2.69-6-6s2.69-6,6-6s6,2.69,6,6
			S15.31,18,12,18z" fill="currentColor"/></g></g></svg>