<?xml version="1.0" encoding="utf-8"?><!--Generator: Adobe Illustrator 19.1.0, SVG Export Plug-In . SVG Version: 6.00 Build 0)--><svg version="1.1" xmlns="http://www.w3.org/2000/svg" xmlns:xlink="http://www.w3.org/1999/xlink" x="0px" y="0px" width="24px" height="24px" viewBox="0 0 24 24" enable-background="new 0 0 24 24" xml:space="preserve"><g id="Bounding_Boxes"><g id="ui_x5F_spec_x5F_header_copy_3"/></g><g id="Duotone"><g id="ui_x5F_spec_x5F_header_copy_5"/><g><rect x="6.41" y="5.91" transform="matrix(0.7071 -0.7071 0.7071 0.7071 -3.0673 7.405)" width="1.99" height="3"/><rect x="11" y="1" width="2" height="6"/><rect x="15.1" y="15.6" transform="matrix(0.7071 0.7071 -0.7071 0.7071 16.5953 -6.8739)" width="3" height="1.99"/><rect x="15.1" y="6.41" transform="matrix(0.7071 -0.7071 0.7071 0.7071 -0.3756 13.9033)" width="3" height="1.99"/><rect x="5.91" y="15.6" transform="matrix(-0.7071 0.7071 -0.7071 -0.7071 24.3755 23.0933)" width="3" height="1.99"/><path d="M12,9c-1.66,0-3,1.34-3,3c0,1.66,1.34,3,3,3s3-1.34,3-3C15,10.34,13.66,9,12,9z" fill="currentColor"/><rect x="11" y="17" width="2" height="6"/><rect x="1" y="11" width="6" height="2"/><rect x="17" y="11" width="6" height="2"/></g></g></svg>