<?xml version="1.0" encoding="utf-8"?><!--Generator: Adobe Illustrator 19.1.0, SVG Export Plug-In . SVG Version: 6.00 Build 0)--><svg version="1.1" xmlns="http://www.w3.org/2000/svg" xmlns:xlink="http://www.w3.org/1999/xlink" x="0px" y="0px" width="24px" height="24px" viewBox="0 0 24 24" enable-background="new 0 0 24 24" xml:space="preserve"><g id="Bounding_Boxes"><g id="ui_x5F_spec_x5F_header_copy_2"/></g><g id="Duotone"><g id="ui_x5F_spec_x5F_header_copy_3"/><g><path opacity="0.3" d="M12,20c4.41,0,8-3.59,8-8c0-4.41-3.59-8-8-8s-8,3.59-8,8C4,16.41,7.59,20,12,20z M7,11h4V7h2v4h4v2h-4v4h-2
			v-4H7V11z" fill="currentColor"/><polygon points="11,17 13,17 13,13 17,13 17,11 13,11 13,7 11,7 11,11 7,11 7,13 11,13 		"/><path d="M12,22h8c1.1,0,2-0.9,2-2v-8c0-5.51-4.49-10-10-10S2,6.49,2,12S6.49,22,12,22z M12,4c4.41,0,8,3.59,8,8c0,4.41-3.59,8-8,8
			s-8-3.59-8-8C4,7.59,7.59,4,12,4z" fill="currentColor"/></g></g></svg>