<?xml version="1.0" encoding="utf-8"?><!--Generator: Adobe Illustrator 19.1.0, SVG Export Plug-In . SVG Version: 6.00 Build 0)--><svg version="1.1" xmlns="http://www.w3.org/2000/svg" xmlns:xlink="http://www.w3.org/1999/xlink" x="0px" y="0px" width="24px" height="24px" viewBox="0 0 24 24" enable-background="new 0 0 24 24" xml:space="preserve"><g id="Bounding_Boxes"><g id="ui_x5F_spec_x5F_header_copy_2"/></g><g id="Duotone"><g id="ui_x5F_spec_x5F_header_copy"/><g><rect x="5" y="5" opacity="0.3" width="14" height="2"/><g><path d="M19,3h-1V1h-2v2H8V1H6v2H5C3.9,3,3,3.9,3,5v14c0,1.1,0.9,2,2,2h14c1.1,0,2-0.9,2-2V5C21,3.9,20.1,3,19,3z M19,19H5V9h14
				V19z M19,7H5V5h14V7z" fill="currentColor"/><polygon points="9.29,17.47 11.73,15.03 14.17,17.47 15.23,16.41 12.79,13.97 15.23,11.53 14.17,10.47 11.73,12.91 9.29,10.47 
				8.23,11.53 10.67,13.97 8.23,16.41 			"/></g></g></g></svg>