<?xml version="1.0" encoding="utf-8"?><!--Generator: Adobe Illustrator 19.1.0, SVG Export Plug-In . SVG Version: 6.00 Build 0)--><svg version="1.1" xmlns="http://www.w3.org/2000/svg" xmlns:xlink="http://www.w3.org/1999/xlink" x="0px" y="0px" width="24px" height="24px" viewBox="0 0 24 24" enable-background="new 0 0 24 24" xml:space="preserve"><g id="Bounding_Boxes"/><g id="Duotone"><g id="ui_x5F_spec_x5F_header_copy_2"/><g><path opacity="0.3" d="M4.94,7.26l2.21,2.21C8.59,8.56,10.26,8.07,12,8.07c1.74,0,3.41,0.49,4.84,1.4l2.21-2.21
			C17,5.79,14.56,5,12,5C9.44,5,6.99,5.79,4.94,7.26z" fill="currentColor"/><circle opacity="0.3" cx="12" cy="17" r="3"/><path d="M17,17c0-2.76-2.24-5-5-5s-5,2.24-5,5s2.24,5,5,5S17,19.76,17,17z M9,17c0-1.65,1.35-3,3-3s3,1.35,3,3s-1.35,3-3,3
			S9,18.65,9,17z" fill="currentColor"/><path d="M2,7.15l5,5c1.28-1.28,3.05-2.08,5-2.08s3.72,0.79,5,2.07l5-5C19.44,4.59,15.9,3,12,3C8.1,3,4.56,4.59,2,7.15z
			 M16.84,9.47c-1.44-0.91-3.1-1.4-4.84-1.4c-1.74,0-3.41,0.49-4.85,1.41L4.94,7.26C6.99,5.79,9.44,5,12,5c2.56,0,5,0.79,7.05,2.26
			L16.84,9.47z" fill="currentColor"/></g></g></svg>