<?xml version="1.0" encoding="utf-8"?><!--Generator: Adobe Illustrator 19.1.0, SVG Export Plug-In . SVG Version: 6.00 Build 0)--><svg version="1.1" xmlns="http://www.w3.org/2000/svg" xmlns:xlink="http://www.w3.org/1999/xlink" x="0px" y="0px" width="24px" height="24px" viewBox="0 0 24 24" enable-background="new 0 0 24 24" xml:space="preserve"><g id="Bounding_Boxes"><g id="ui_x5F_spec_x5F_header_copy_3"/></g><g id="Duotone"><g id="ui_x5F_spec_x5F_header_copy_5"/><g><path d="M18,21h3v-3C19.34,18,18,19.34,18,21z" fill="currentColor"/><path d="M3,14c6.08,0,11-4.93,11-11h-2c0,4.97-4.03,9-9,9V14z" fill="currentColor"/><path d="M14,21h2c0-2.76,2.24-5,5-5v-2C17.13,14,14,17.13,14,21z" fill="currentColor"/><path d="M3,10c3.87,0,7-3.13,7-7H8c0,2.76-2.24,5-5,5V10z" fill="currentColor"/><path d="M10,21h2c0-4.97,4.03-9,9-9v-2C14.93,10,10,14.93,10,21z" fill="currentColor"/><path d="M3,3v3c1.66,0,3-1.34,3-3H3z" fill="currentColor"/></g></g></svg>