<?xml version="1.0" encoding="utf-8"?><!--Generator: Adobe Illustrator 19.1.0, SVG Export Plug-In . SVG Version: 6.00 Build 0)--><svg version="1.1" xmlns="http://www.w3.org/2000/svg" xmlns:xlink="http://www.w3.org/1999/xlink" x="0px" y="0px" width="24px" height="24px" viewBox="0 0 24 24" enable-background="new 0 0 24 24" xml:space="preserve"><g id="Bounding_Boxes"/><g id="Duotone"><g id="ui_x5F_spec_x5F_header_copy_2"/><g><path d="M1,21.98c0,0.56,0.45,1.01,1.01,1.01h12.99c0.56,0,1.01-0.45,1.01-1.01V21H1V21.98z" fill="currentColor"/><g><path opacity="0.3" d="M8.5,10.99c-1.42,0-3.77,0.46-4.88,2.01h9.77C12.27,11.45,9.92,10.99,8.5,10.99z" fill="currentColor"/><path d="M8.5,8.99C4.75,8.99,1,11,1,15h15C16,11,12.25,8.99,8.5,8.99z M3.62,13c1.11-1.55,3.47-2.01,4.88-2.01
				s3.77,0.46,4.88,2.01H3.62z" fill="currentColor"/></g><rect x="1" y="17" width="15" height="2"/><path d="M18,5V1h-2v4h-5l0.23,2h9.56l-1.4,14H18v2h1.72c0.84,0,1.53-0.65,1.63-1.47L23,5H18z" fill="currentColor"/></g></g></svg>