<?xml version="1.0" encoding="utf-8"?><!--Generator: Adobe Illustrator 19.1.0, SVG Export Plug-In . SVG Version: 6.00 Build 0)--><svg version="1.1" xmlns="http://www.w3.org/2000/svg" xmlns:xlink="http://www.w3.org/1999/xlink" x="0px" y="0px" width="24px" height="24px" viewBox="0 0 24 24" enable-background="new 0 0 24 24" xml:space="preserve"><g id="Bounding_Boxes"/><g id="Duotone"><g id="ui_x5F_spec_x5F_header_copy_2"/><g><path opacity="0.3" d="M5.11,19h13.78l-1.79-5.37L16.89,13l0.21-0.63L18.89,7h-0.53h-1.27h-1.4H5.11l1.79,5.37L7.11,13L6.9,13.63
			L5.11,19z M8,12h3V9h2v3h3v2h-3v3h-2v-3H8V12z" fill="currentColor"/><path d="M3,21h18v-2l-2-6l2-6V5h-2.64l1.14-3.14L17.15,1l-1.46,4H3v2l2,6l-2,6V21z M6.9,12.37L5.11,7h13.78l-1.79,5.37L16.89,13
			l0.21,0.63L18.89,19H5.11l1.79-5.37L7.11,13L6.9,12.37z" fill="currentColor"/><polygon points="11,17 13,17 13,14 16,14 16,12 13,12 13,9 11,9 11,12 8,12 8,14 11,14 		"/></g></g></svg>