<?xml version="1.0" encoding="utf-8"?><!--Generator: Adobe Illustrator 19.1.0, SVG Export Plug-In . SVG Version: 6.00 Build 0)--><svg version="1.1" xmlns="http://www.w3.org/2000/svg" xmlns:xlink="http://www.w3.org/1999/xlink" x="0px" y="0px" width="24px" height="24px" viewBox="0 0 24 24" enable-background="new 0 0 24 24" xml:space="preserve"><g id="Bounding_Boxes"><g id="ui_x5F_spec_x5F_header_copy_3" display="none"/></g><g id="Duotone"><g id="ui_x5F_spec_x5F_header_copy_2" display="none"/><g><path d="M1.41,1.13L0,2.54l4.39,4.39l2.21,4.66l-1.35,2.45C5.09,14.32,5,14.65,5,15c0,1.1,0.9,2,2,2h7.46l1.38,1.38
			c-0.5,0.36-0.83,0.95-0.83,1.62c0,1.1,0.89,2,1.99,2c0.67,0,1.26-0.33,1.62-0.84L21.46,24l1.41-1.41L1.41,1.13z M7,15l1.1-2h2.36
			l2,2H7z" fill="currentColor"/><polygon opacity="0.3" points="18.31,6 9.12,6 14.11,11 15.55,11 		"/><path d="M20,4H7.12l2,2h9.19l-2.76,5h-1.44l1.94,1.94c0.54-0.14,0.99-0.49,1.25-0.97l3.58-6.49C21.25,4.82,20.76,4,20,4z" fill="currentColor"/><path d="M7,18c-1.1,0-1.99,0.9-1.99,2c0,1.1,0.89,2,1.99,2c1.1,0,2-0.9,2-2C9,18.9,8.1,18,7,18z" fill="currentColor"/></g></g></svg>