<?xml version="1.0" encoding="utf-8"?><!--Generator: Adobe Illustrator 19.1.0, SVG Export Plug-In . SVG Version: 6.00 Build 0)--><svg version="1.1" xmlns="http://www.w3.org/2000/svg" xmlns:xlink="http://www.w3.org/1999/xlink" x="0px" y="0px" width="24px" height="24px" viewBox="0 0 24 24" enable-background="new 0 0 24 24" xml:space="preserve"><g id="Bounding_Boxes"/><g id="Duotone"><g id="ui_x5F_spec_x5F_header_copy_2"/><g><path opacity="0.3" d="M5.51,6.36L12,17.92l6.49-11.55C16.68,4.85,14.38,4,12,4C9.62,4,7.32,4.85,5.51,6.36z M9,8.5
			C8.17,8.5,7.5,7.83,7.5,7S8.17,5.5,9,5.5c0.83,0,1.5,0.67,1.5,1.5S9.82,8.5,9,8.5z M13.5,13c0,0.83-0.68,1.5-1.5,1.5
			c-0.83,0-1.5-0.67-1.5-1.5s0.67-1.5,1.5-1.5C12.83,11.5,13.5,12.17,13.5,13z" fill="currentColor"/><path d="M12,2C8.43,2,5.23,3.54,3.01,6L12,22l8.99-16C18.78,3.55,15.57,2,12,2z M12,17.92L5.51,6.36C7.32,4.85,9.62,4,12,4
			c2.38,0,4.68,0.85,6.49,2.36L12,17.92z" fill="currentColor"/><path d="M9,5.5C8.17,5.5,7.5,6.17,7.5,7S8.17,8.5,9,8.5c0.83,0,1.5-0.67,1.5-1.5S9.82,5.5,9,5.5z" fill="currentColor"/><path d="M10.5,13c0,0.83,0.67,1.5,1.5,1.5c0.82,0,1.5-0.67,1.5-1.5s-0.68-1.5-1.5-1.5C11.18,11.5,10.5,12.17,10.5,13z" fill="currentColor"/></g></g></svg>