<?xml version="1.0" encoding="utf-8"?><!--Generator: Adobe Illustrator 19.1.0, SVG Export Plug-In . SVG Version: 6.00 Build 0)--><svg version="1.1" xmlns="http://www.w3.org/2000/svg" xmlns:xlink="http://www.w3.org/1999/xlink" x="0px" y="0px" width="24px" height="24px" viewBox="0 0 24 24" enable-background="new 0 0 24 24" xml:space="preserve"><g id="Bounding_Boxes"><g id="ui_x5F_spec_x5F_header_copy_2"/></g><g id="Duotone"><g id="ui_x5F_spec_x5F_header_copy_3"/><g><path opacity="0.3" d="M15.22,4.75L7.87,7.79l4.96,11.96l7.35-3.05L15.22,4.75C15.22,4.75,15.22,4.75,15.22,4.75z M11,10
			c-0.55,0-1-0.45-1-1s0.45-1,1-1s1,0.45,1,1S11.55,10,11,10z" fill="currentColor"/><path d="M3.87,11.18l-2.43,5.86c-0.41,1.02,0.08,2.19,1.09,2.61l1.34,0.56V11.18z" fill="currentColor"/><path d="M22.03,15.95L17.07,3.98c-0.31-0.75-1.04-1.21-1.81-1.23c-0.26,0-0.53,0.04-0.79,0.15L7.1,5.95
			c-0.75,0.31-1.21,1.03-1.23,1.8c-0.01,0.27,0.04,0.54,0.15,0.8l4.96,11.97c0.31,0.76,1.05,1.22,1.83,1.23
			c0.26,0,0.52-0.05,0.77-0.15l7.36-3.05C21.96,18.13,22.45,16.96,22.03,15.95z M12.83,19.75L7.87,7.79l7.35-3.04c0,0,0,0,0.01,0
			l4.95,11.95L12.83,19.75z" fill="currentColor"/><circle cx="11" cy="9" r="1"/><path d="M9.33,21.75l-3.45-8.34v6.34c0,1.1,0.9,2,2,2H9.33z" fill="currentColor"/></g></g></svg>