<?xml version="1.0" encoding="utf-8"?><!--Generator: Adobe Illustrator 19.1.0, SVG Export Plug-In . SVG Version: 6.00 Build 0)--><svg version="1.1" xmlns="http://www.w3.org/2000/svg" xmlns:xlink="http://www.w3.org/1999/xlink" x="0px" y="0px" width="24px" height="24px" viewBox="0 0 24 24" enable-background="new 0 0 24 24" xml:space="preserve"><g id="Bounding_Boxes" display="none"><g id="ui_x5F_spec_x5F_header_copy_3" display="inline"/></g><g id="Duotone"><g id="ui_x5F_spec_x5F_header_copy_2"/><g><path opacity="0.3" d="M12,6c-2.76,0-5,2.24-5,5v7h10v-7C17,8.24,14.76,6,12,6z M13,16h-2v-2h2V16z M13,12h-2V8h2V12z" fill="currentColor"/><path d="M12,23c1.1,0,1.99-0.89,1.99-1.99h-3.98C10.01,22.11,10.9,23,12,23z" fill="currentColor"/><path d="M19,17v-6c0-3.35-2.36-6.15-5.5-6.83V3c0-0.83-0.67-1.5-1.5-1.5S10.5,2.17,10.5,3v1.17C7.36,4.85,5,7.65,5,11v6l-2,2v1h18
			v-1L19,17z M17,18H7v-7c0-2.76,2.24-5,5-5s5,2.24,5,5V18z" fill="currentColor"/><rect x="11" y="8" width="2" height="4"/><rect x="11" y="14" width="2" height="2"/></g></g></svg>