<?xml version="1.0" encoding="utf-8"?><!--Generator: Adobe Illustrator 19.1.0, SVG Export Plug-In . SVG Version: 6.00 Build 0)--><svg version="1.1" xmlns="http://www.w3.org/2000/svg" xmlns:xlink="http://www.w3.org/1999/xlink" x="0px" y="0px" width="24px" height="24px" viewBox="0 0 24 24" enable-background="new 0 0 24 24" xml:space="preserve"><g id="Bounding_Boxes"/><g id="Duotone"><g id="ui_x5F_spec_x5F_header_copy"/><g><polygon points="13,15 13,12 16,12 16,10 13,10 13,7 11,7 11,10 8,10 8,12 11,12 11,15 		"/><polygon points="18,15 21,18 18,21 19.5,22.5 24,18 19.5,13.5 		"/><path d="M8,19v2h8v-2h2v-2H3V5h18v8h2V5c0-1.11-0.9-2-2-2H3C1.89,3,1,3.89,1,5v12c0,1.1,0.89,2,2,2H8z" fill="currentColor"/></g></g></svg>