<?xml version="1.0" encoding="utf-8"?><!--Generator: Adobe Illustrator 19.1.0, SVG Export Plug-In . SVG Version: 6.00 Build 0)--><svg version="1.1" xmlns="http://www.w3.org/2000/svg" xmlns:xlink="http://www.w3.org/1999/xlink" x="0px" y="0px" width="24px" height="24px" viewBox="0 0 24 24" enable-background="new 0 0 24 24" xml:space="preserve"><g id="Bounding_Boxes"><g id="ui_x5F_spec_x5F_header_copy_3" display="none"/></g><g id="Duotone"><g id="ui_x5F_spec_x5F_header_copy_2" display="none"/><g><path opacity="0.3" d="M3,19.01h18V4.99H3V19.01z M8,10.5V8h2.5L12,6.5L13.5,8H16v2.5l1.5,1.5L16,13.5V16h-2.5L12,17.5L10.5,16H8
			v-2.5L6.5,12L8,10.5z" fill="currentColor"/><path d="M8,16h2.5l1.5,1.5l1.5-1.5H16v-2.5l1.5-1.5L16,10.5V8h-2.5L12,6.5L10.5,8H8v2.5L6.5,12L8,13.5V16z M12,9
			c1.66,0,3,1.34,3,3c0,1.66-1.34,3-3,3V9z" fill="currentColor"/><path d="M21,3H3C1.9,3,1,3.9,1,5v14c0,1.1,0.9,2,2,2h18c1.1,0,2-0.9,2-2V5C23,3.9,22.1,3,21,3z M21,19.01H3V4.99h18V19.01z" fill="currentColor"/></g></g></svg>