<?xml version="1.0" encoding="utf-8"?><!--Generator: Adobe Illustrator 19.1.0, SVG Export Plug-In . SVG Version: 6.00 Build 0)--><svg version="1.1" xmlns="http://www.w3.org/2000/svg" xmlns:xlink="http://www.w3.org/1999/xlink" x="0px" y="0px" width="24px" height="24px" viewBox="0 0 24 24" enable-background="new 0 0 24 24" xml:space="preserve"><g id="Bounding_Boxes"><g id="ui_x5F_spec_x5F_header_copy_3"/></g><g id="Duotone"><g id="ui_x5F_spec_x5F_header_copy_2"/><g><path opacity="0.3" d="M12,6c-3.87,0-7,3.13-7,7s3.13,7,7,7s7-3.13,7-7S15.87,6,12,6z M15.75,16.85L11,14V8h1.5v5.25l4,2.37
			L15.75,16.85z" fill="currentColor"/><path d="M12,4c-4.97,0-9,4.03-9,9c0,4.97,4.02,9,9,9c4.97,0,9-4.03,9-9C21,8.03,16.97,4,12,4z M12,20c-3.87,0-7-3.13-7-7
			s3.13-7,7-7s7,3.13,7,7S15.87,20,12,20z" fill="currentColor"/><polygon points="12.5,8 11,8 11,14 15.75,16.85 16.5,15.62 12.5,13.25 		"/><polygon points="22,5.72 17.4,1.86 16.11,3.39 20.71,7.25 		"/><polygon points="7.88,3.39 6.6,1.86 2,5.71 3.29,7.24 		"/></g></g></svg>