<?xml version="1.0" encoding="utf-8"?><!--Generator: Adobe Illustrator 19.1.0, SVG Export Plug-In . SVG Version: 6.00 Build 0)--><svg version="1.1" xmlns="http://www.w3.org/2000/svg" xmlns:xlink="http://www.w3.org/1999/xlink" x="0px" y="0px" width="24px" height="24px" viewBox="0 0 24 24" enable-background="new 0 0 24 24" xml:space="preserve"><g id="Bounding_Boxes"/><g id="Duotone"><g id="ui_x5F_spec_x5F_header_copy"/><g><path opacity="0.3" d="M4,18h16V6H4V18z M18,16h-2v-2h2V16z M10,10h8v2h-8V10z M6,10h2v2H6V10z M6,14h8v2H6V14z" fill="currentColor"/><path d="M20,4H4C2.9,4,2,4.9,2,6v12c0,1.1,0.9,2,2,2h16c1.1,0,2-0.9,2-2V6C22,4.9,21.1,4,20,4z M20,18H4V6h16V18z" fill="currentColor"/><rect x="6" y="10" width="2" height="2"/><rect x="6" y="14" width="8" height="2"/><rect x="16" y="14" width="2" height="2"/><rect x="10" y="10" width="8" height="2"/></g></g></svg>