<?xml version="1.0" encoding="utf-8"?><!--Generator: Adobe Illustrator 19.1.0, SVG Export Plug-In . SVG Version: 6.00 Build 0)--><svg version="1.1" xmlns="http://www.w3.org/2000/svg" xmlns:xlink="http://www.w3.org/1999/xlink" x="0px" y="0px" width="24px" height="24px" viewBox="0 0 24 24" enable-background="new 0 0 24 24" xml:space="preserve"><g id="Bounding_Boxes"/><g id="Duotone"><g id="ui_x5F_spec_x5F_header_copy_2"/><g><path opacity="0.3" d="M19,17.13v-6.95c-2.1,0.38-4.05,1.35-5.64,2.83L12,14.28l-1.36-1.27C9.05,11.53,7.1,10.56,5,10.18v6.95
			c2.53,0.34,4.94,1.3,7,2.83C14.07,18.44,16.47,17.47,19,17.13z" fill="currentColor"/><circle opacity="0.3" cx="12" cy="5" r="2"/><path d="M16,5c0-2.21-1.79-4-4-4S8,2.79,8,5s1.79,4,4,4S16,7.21,16,5z M10,5c0-1.1,0.9-2,2-2s2,0.9,2,2s-0.9,2-2,2S10,6.1,10,5z" fill="currentColor"/><path d="M3,19c3.48,0,6.64,1.35,9,3.55c2.36-2.19,5.52-3.55,9-3.55V8c-3.48,0-6.64,1.35-9,3.55C9.64,9.35,6.48,8,3,8V19z M5,10.18
			c2.1,0.38,4.05,1.35,5.64,2.83L12,14.28l1.36-1.27c1.59-1.48,3.54-2.45,5.64-2.83v6.95c-2.53,0.34-4.93,1.3-7,2.82
			c-2.06-1.52-4.47-2.49-7-2.83V10.18z" fill="currentColor"/></g></g></svg>