<?xml version="1.0" encoding="utf-8"?><!--Generator: Adobe Illustrator 19.1.0, SVG Export Plug-In . SVG Version: 6.00 Build 0)--><svg version="1.1" xmlns="http://www.w3.org/2000/svg" xmlns:xlink="http://www.w3.org/1999/xlink" x="0px" y="0px" width="24px" height="24px" viewBox="0 0 24 24" enable-background="new 0 0 24 24" xml:space="preserve"><g id="Bounding_Boxes"><g id="ui_x5F_spec_x5F_header_copy_3"/><rect fill="none" width="24" height="24"/></g><g id="Duotone"><g id="ui_x5F_spec_x5F_header_copy_5"/><g><circle cx="14" cy="10" r="1.5"/><circle cx="14" cy="18" r="1"/><circle cx="14" cy="14" r="1.5"/><circle cx="14" cy="6" r="1"/><path d="M3,9.5c-0.28,0-0.5,0.22-0.5,0.5c0,0.28,0.22,0.5,0.5,0.5s0.5-0.22,0.5-0.5C3.5,9.72,3.28,9.5,3,9.5z" fill="currentColor"/><path d="M14.5,3c0-0.28-0.22-0.5-0.5-0.5S13.5,2.72,13.5,3c0,0.28,0.22,0.5,0.5,0.5S14.5,3.28,14.5,3z" fill="currentColor"/><path d="M21,14.5c0.28,0,0.5-0.22,0.5-0.5c0-0.28-0.22-0.5-0.5-0.5s-0.5,0.22-0.5,0.5C20.5,14.28,20.72,14.5,21,14.5z" fill="currentColor"/><circle cx="18" cy="18" r="1"/><path d="M13.5,21c0,0.28,0.22,0.5,0.5,0.5s0.5-0.22,0.5-0.5c0-0.28-0.22-0.5-0.5-0.5S13.5,20.72,13.5,21z" fill="currentColor"/><path d="M21,10.5c0.28,0,0.5-0.22,0.5-0.5c0-0.28-0.22-0.5-0.5-0.5s-0.5,0.22-0.5,0.5C20.5,10.28,20.72,10.5,21,10.5z" fill="currentColor"/><circle cx="18" cy="14" r="1"/><circle cx="18" cy="6" r="1"/><circle cx="6" cy="18" r="1"/><circle cx="6" cy="14" r="1"/><path d="M3.5,14c0-0.28-0.22-0.5-0.5-0.5S2.5,13.72,2.5,14c0,0.28,0.22,0.5,0.5,0.5S3.5,14.28,3.5,14z" fill="currentColor"/><circle cx="10" cy="6" r="1"/><circle cx="6" cy="10" r="1"/><circle cx="6" cy="6" r="1"/><path d="M9.5,21c0,0.28,0.22,0.5,0.5,0.5s0.5-0.22,0.5-0.5c0-0.28-0.22-0.5-0.5-0.5S9.5,20.72,9.5,21z" fill="currentColor"/><circle cx="10" cy="18" r="1"/><path d="M10.5,3c0-0.28-0.22-0.5-0.5-0.5S9.5,2.72,9.5,3c0,0.28,0.22,0.5,0.5,0.5S10.5,3.28,10.5,3z" fill="currentColor"/><circle cx="10" cy="14" r="1.5"/><circle cx="10" cy="10" r="1.5"/><circle cx="18" cy="10" r="1"/></g></g></svg>