<?xml version="1.0" encoding="utf-8"?><!--Generator: Adobe Illustrator 19.1.0, SVG Export Plug-In . SVG Version: 6.00 Build 0)--><svg version="1.1" xmlns="http://www.w3.org/2000/svg" xmlns:xlink="http://www.w3.org/1999/xlink" x="0px" y="0px" width="24px" height="24px" viewBox="0 0 24 24" enable-background="new 0 0 24 24" xml:space="preserve"><g id="Bounding_Boxes"><g id="ui_x5F_spec_x5F_header_copy_2"/></g><g id="Duotone"><g id="ui_x5F_spec_x5F_header_copy"/><g><path opacity="0.3" d="M15,16c-2.69,0-5.77,1.28-6,2h12C20.8,17.29,17.7,16,15,16z" fill="currentColor"/><circle opacity="0.3" cx="15" cy="8" r="2"/><path d="M15,12c2.21,0,4-1.79,4-4c0-2.21-1.79-4-4-4s-4,1.79-4,4C11,10.21,12.79,12,15,12z M15,6c1.1,0,2,0.9,2,2s-0.9,2-2,2
			s-2-0.9-2-2S13.9,6,15,6z" fill="currentColor"/><path d="M15,14c-2.67,0-8,1.34-8,4v2h16v-2C23,15.34,17.67,14,15,14z M9,18c0.22-0.72,3.31-2,6-2c2.7,0,5.8,1.29,6,2H9z" fill="currentColor"/><polygon points="6,15 6,12 9,12 9,10 6,10 6,7 4,7 4,10 1,10 1,12 4,12 4,15 		"/></g></g></svg>