<?xml version="1.0" encoding="utf-8"?><!--Generator: Adobe Illustrator 19.1.0, SVG Export Plug-In . SVG Version: 6.00 Build 0)--><svg version="1.1" xmlns="http://www.w3.org/2000/svg" xmlns:xlink="http://www.w3.org/1999/xlink" x="0px" y="0px" width="24px" height="24px" viewBox="0 0 24 24" enable-background="new 0 0 24 24" xml:space="preserve"><g id="Bounding_Boxes"><g id="ui_x5F_spec_x5F_header_copy_3"/></g><g id="Duotone"><g id="ui_x5F_spec_x5F_header_copy_5"/><g><rect x="10" y="10" opacity="0.3" width="4" height="4"/><rect x="10" y="16" opacity="0.3" width="4" height="4"/><rect x="4" y="4" opacity="0.3" width="4" height="4"/><rect x="4" y="10" opacity="0.3" width="4" height="4"/><rect x="4" y="16" opacity="0.3" width="4" height="4"/><rect x="16" y="4" opacity="0.3" width="4" height="4"/><rect x="16" y="10" opacity="0.3" width="4" height="4"/><rect x="16" y="16" opacity="0.3" width="4" height="4"/><rect x="10" y="4" opacity="0.3" width="4" height="4"/><path d="M20,2H4C2.9,2,2,2.9,2,4v16c0,1.1,0.9,2,2,2h16c1.1,0,2-0.9,2-2V4C22,2.9,21.1,2,20,2z M8,20H4v-4h4V20z M8,14H4v-4h4V14z
			 M8,8H4V4h4V8z M14,20h-4v-4h4V20z M14,14h-4v-4h4V14z M14,8h-4V4h4V8z M20,20h-4v-4h4V20z M20,14h-4v-4h4V14z M20,8h-4V4h4V8z" fill="currentColor"/></g></g></svg>